<svg width="255" height="193" viewBox="0 0 255 193" fill="none" xmlns="http://www.w3.org/2000/svg">
<path d="M216.986 36.1731C209.379 11.3435 143.627 -20.7027 91.6821 19.1352C67.5229 37.6644 75.0217 50.9619 61.1117 77.2131C52.82 92.8594 38.1329 107.778 39.1142 125.741C39.9579 141.247 48.0713 155.271 59.0471 162.302C83.7313 178.116 122.84 180.8 143.286 134.123C163.731 87.4452 236.599 100.213 216.986 36.1731V36.1731Z" fill="url(#paint0_linear_7766_12722)"/>
<path d="M239.368 114.129C234.175 107.454 225.072 107.808 210.941 111.367C200.315 114.046 190.602 116.344 180.707 123.859C173.78 129.116 168.648 135.586 165.105 141.652C161.265 148.224 155.681 155.906 159.921 162.055C165.747 170.501 192.612 174.288 215.667 157.946C240.991 139.99 244.446 120.653 239.368 114.129Z" fill="url(#paint1_linear_7766_12722)"/>
<path d="M57.6987 54.9056C50.4029 74.3597 43.1004 94.9156 29.7425 107.656C15.9654 120.801 11.5321 116.162 8.09915 107.819C4.66582 99.476 4.15915 77.6647 23.0642 60.1118C41.9746 42.5539 64.5246 36.6989 57.6987 54.9056V54.9056Z" fill="url(#paint2_linear_7766_12722)"/>
<path fill-rule="evenodd" clip-rule="evenodd" d="M73.3242 31.9209H186.93C195.896 31.9209 203.159 39.1834 203.159 48.1501V51.2742H57.095V48.1501C57.095 39.1834 64.3575 31.9209 73.3242 31.9209V31.9209ZM57.095 72.2246V153.641C57.095 162.608 64.3575 169.87 73.3242 169.87H186.93C195.896 169.87 203.159 162.608 203.159 153.641V72.2246H57.095Z" fill="#A855F7"/>
<path d="M203.159 51.274V56.5169C206.054 56.5169 208.402 54.1698 208.402 51.274H203.159ZM57.095 51.274H51.8521C51.8521 54.1698 54.1992 56.5169 57.095 56.5169V51.274ZM57.095 72.2244V66.9815C54.1992 66.9815 51.8521 69.329 51.8521 72.2244H57.095ZM203.159 72.2244H208.402C208.402 69.329 206.054 66.9815 203.159 66.9815V72.2244ZM186.93 26.6777H73.3242V37.1636H186.93V26.6777V26.6777ZM208.402 48.1498C208.402 36.2877 198.792 26.6777 186.93 26.6777V37.1636C193 37.1636 197.916 42.0786 197.916 48.1498H208.402V48.1498ZM208.402 51.274V48.1498H197.916V51.274H208.402ZM57.095 56.5169H203.159V46.0311H57.095V56.5169V56.5169ZM51.8521 48.1498V51.274H62.3379V48.1498H51.8521ZM73.3242 26.6777C61.4621 26.6777 51.8521 36.2877 51.8521 48.1498H62.3379C62.3379 42.0786 67.2529 37.1636 73.3242 37.1636V26.6777V26.6777ZM51.8521 72.2244V153.641H62.3379V72.2244H51.8521ZM51.8521 153.641C51.8521 165.503 61.4621 175.113 73.3242 175.113V164.627C67.2529 164.627 62.3379 159.711 62.3379 153.641H51.8521ZM73.3242 175.113H186.93V164.627H73.3242V175.113V175.113ZM186.93 175.113C198.792 175.113 208.402 165.503 208.402 153.641H197.916C197.916 159.711 193 164.627 186.93 164.627V175.113ZM208.402 153.641V72.2244H197.916V153.641H208.402ZM203.159 66.9815H57.095V77.4673H203.159V66.9815V66.9815Z" fill="#A855F7"/>
<path d="M83.4063 87.3452H74.53C70.6422 87.3452 67.4904 90.497 67.4904 94.3848V103.261C67.4904 107.149 70.6422 110.301 74.53 110.301H83.4063C87.2941 110.301 90.4459 107.149 90.4459 103.261V94.3848C90.4459 90.497 87.2941 87.3452 83.4063 87.3452Z" fill="white"/>
<path d="M83.4063 122.956H74.53C70.6422 122.956 67.4904 126.108 67.4904 129.996V138.872C67.4904 142.76 70.6422 145.911 74.53 145.911H83.4063C87.2941 145.911 90.4459 142.76 90.4459 138.872V129.996C90.4459 126.108 87.2941 122.956 83.4063 122.956Z" fill="white"/>
<path d="M117.585 87.3452H108.333C104.445 87.3452 101.293 90.497 101.293 94.3848V103.261C101.293 107.149 104.445 110.301 108.333 110.301H117.585C121.473 110.301 124.625 107.149 124.625 103.261V94.3848C124.625 90.497 121.473 87.3452 117.585 87.3452Z" fill="white"/>
<path d="M117.585 122.956H108.333C104.445 122.956 101.293 126.108 101.293 129.996V138.872C101.293 142.76 104.445 145.911 108.333 145.911H117.585C121.473 145.911 124.625 142.76 124.625 138.872V129.996C124.625 126.108 121.473 122.956 117.585 122.956Z" fill="white"/>
<path d="M151.388 87.3452H142.512C138.624 87.3452 135.472 90.497 135.472 94.3848V103.261C135.472 107.149 138.624 110.301 142.512 110.301H151.388C155.276 110.301 158.428 107.149 158.428 103.261V94.3848C158.428 90.497 155.276 87.3452 151.388 87.3452Z" fill="white"/>
<path d="M151.388 122.956H142.512C138.624 122.956 135.472 126.108 135.472 129.996V138.872C135.472 142.76 138.624 145.911 142.512 145.911H151.388C155.276 145.911 158.428 142.76 158.428 138.872V129.996C158.428 126.108 155.276 122.956 151.388 122.956Z" fill="white"/>
<path d="M185.191 87.3452H176.315C172.427 87.3452 169.275 90.497 169.275 94.3848V103.261C169.275 107.149 172.427 110.301 176.315 110.301H185.191C189.079 110.301 192.23 107.149 192.23 103.261V94.3848C192.23 90.497 189.079 87.3452 185.191 87.3452Z" fill="white"/>
<path d="M80.6391 12.9058H80.6387C78.0326 12.9058 75.92 15.0184 75.92 17.6245V41.8937C75.92 44.4998 78.0326 46.6124 80.6387 46.6124H80.6391C83.2452 46.6124 85.3579 44.4998 85.3579 41.8937V17.6245C85.3579 15.0184 83.2452 12.9058 80.6391 12.9058Z" fill="#A855F7"/>
<path d="M146.255 12.9058H146.255C143.648 12.9058 141.536 15.0184 141.536 17.6245V41.8937C141.536 44.4998 143.648 46.6124 146.255 46.6124H146.255C148.861 46.6124 150.974 44.4998 150.974 41.8937V17.6245C150.974 15.0184 148.861 12.9058 146.255 12.9058Z" fill="#A855F7"/>
<path d="M113.447 12.9058H113.447C110.841 12.9058 108.728 15.0184 108.728 17.6245V41.8937C108.728 44.4998 110.841 46.6124 113.447 46.6124H113.447C116.053 46.6124 118.166 44.4998 118.166 41.8937V17.6245C118.166 15.0184 116.053 12.9058 113.447 12.9058Z" fill="#A855F7"/>
<path d="M179.063 12.9058H179.063C176.456 12.9058 174.344 15.0184 174.344 17.6245V41.8937C174.344 44.4998 176.456 46.6124 179.063 46.6124H179.063C181.669 46.6124 183.782 44.4998 183.782 41.8937V17.6245C183.782 15.0184 181.669 12.9058 179.063 12.9058Z" fill="#A855F7"/>
<path fill-rule="evenodd" clip-rule="evenodd" d="M224.21 126.865C237.624 140.279 237.624 162.029 224.21 175.443C210.795 188.858 189.045 188.858 175.631 175.443C162.216 162.029 162.216 140.279 175.631 126.865C189.045 113.45 210.795 113.45 224.21 126.865V126.865Z" fill="#A855F7"/>
<path d="M224.21 126.865C237.624 140.279 237.624 162.029 224.21 175.443C210.795 188.858 189.045 188.858 175.631 175.443C162.216 162.029 162.216 140.279 175.631 126.865C189.045 113.45 210.795 113.45 224.21 126.865" stroke="white" stroke-width="14.287" stroke-linecap="round" stroke-linejoin="round"/>
<path d="M213.659 161.616L199.978 153.456V135.868" stroke="white" stroke-width="10.404" stroke-linecap="round" stroke-linejoin="round"/>
<path d="M232.503 42.3944C228.438 44.7414 223.24 43.3486 220.893 39.2835C218.546 35.2184 219.939 30.0204 224.004 27.6734C228.069 25.3264 233.267 26.7192 235.614 30.7843C237.961 34.8494 236.568 40.0474 232.503 42.3944Z" fill="#A855F7"/>
<path d="M232.794 68.6384C232.794 70.7495 231.083 72.4609 228.972 72.4609C226.861 72.4609 225.149 70.7495 225.149 68.6384C225.149 66.5273 226.861 64.8159 228.972 64.8159C231.083 64.8159 232.794 66.5273 232.794 68.6384Z" fill="#E1E4E5"/>
<path d="M42.4379 60.5445C40.5762 60.5445 39.0671 62.0536 39.0671 63.9153C39.0671 65.777 40.5762 67.2861 42.4379 67.2861C44.2996 67.2861 45.8087 65.777 45.8087 63.9153C45.8087 62.0536 44.2996 60.5445 42.4379 60.5445Z" fill="#E1E4E5"/>
<path d="M6.93332 144.587C10.5324 144.587 13.45 147.505 13.45 151.104C13.45 154.703 10.5324 157.621 6.93332 157.621C3.33426 157.621 0.416656 154.703 0.416656 151.104C0.416656 147.505 3.33426 144.587 6.93332 144.587Z" fill="#E1E4E5"/>
<path d="M133.496 16.9045C131.407 18.1111 128.734 17.3951 127.528 15.3053C126.321 13.2156 127.037 10.5434 129.127 9.33693C131.217 8.13041 133.889 8.84641 135.096 10.9362C136.302 13.0259 135.586 15.698 133.496 16.9045Z" fill="#E1E4E5"/>
<path d="M70.5267 34.0288C72.2641 34.0288 73.6725 32.5196 73.6725 30.6579C73.6725 28.7963 72.2641 27.2871 70.5267 27.2871C68.7893 27.2871 67.3808 28.7963 67.3808 30.6579C67.3808 32.5196 68.7893 34.0288 70.5267 34.0288Z" fill="#A855F7"/>
<path d="M246.35 105.524C241.748 102.866 235.863 104.443 233.206 109.045C230.549 113.648 232.126 119.532 236.728 122.189C241.33 124.847 247.215 123.27 249.872 118.668C252.529 114.065 250.952 108.181 246.35 105.524Z" fill="#A855F7"/>
<path d="M23.5879 94.7407C21.5181 93.5457 18.8715 94.2549 17.6764 96.3247C16.4814 98.3945 17.1906 101.041 19.2604 102.236C21.3302 103.431 23.9769 102.722 25.1719 100.652C26.3669 98.5824 25.6577 95.9357 23.5879 94.7407Z" fill="#A855F7"/>
<path d="M35.6967 126.61C33.835 126.61 32.3258 125.101 32.3258 123.239C32.3258 121.377 33.835 119.868 35.6967 119.868C37.5583 119.868 39.0675 121.377 39.0675 123.239C39.0675 125.101 37.5583 126.61 35.6967 126.61Z" fill="#E1E4E5"/>
<path d="M226.357 96.3715C227.572 97.0731 227.988 98.6271 227.287 99.8424C226.585 101.058 225.031 101.474 223.816 100.772C222.601 100.071 222.184 98.5168 222.886 97.3015C223.587 96.0863 225.141 95.6699 226.357 96.3715Z" fill="#E1E4E5"/>
<path d="M17.0454 49.309C21.0168 49.309 24.2363 46.1901 24.2363 42.3427C24.2363 38.4954 21.0168 35.3765 17.0454 35.3765C13.074 35.3765 9.85458 38.4954 9.85458 42.3427C9.85458 46.1901 13.074 49.309 17.0454 49.309Z" fill="#E1E4E5"/>
<path d="M165.817 181.303C163.243 181.303 161.156 183.389 161.156 185.963C161.156 188.537 163.243 190.624 165.817 190.624C168.391 190.624 170.477 188.537 170.477 185.963C170.477 183.389 168.391 181.303 165.817 181.303Z" fill="#E1E4E5"/>
<defs>
<linearGradient id="paint0_linear_7766_12722" x1="106.58" y1="-88.8906" x2="164.864" y2="345.439" gradientUnits="userSpaceOnUse">
<stop stop-color="white"/>
<stop offset="1" stop-color="#EEEEEE"/>
</linearGradient>
<linearGradient id="paint1_linear_7766_12722" x1="204.671" y1="71.0265" x2="193.044" y2="240.247" gradientUnits="userSpaceOnUse">
<stop stop-color="white"/>
<stop offset="1" stop-color="#EEEEEE"/>
</linearGradient>
<linearGradient id="paint2_linear_7766_12722" x1="30.3054" y1="4.7989" x2="39.4617" y2="192.134" gradientUnits="userSpaceOnUse">
<stop stop-color="white"/>
<stop offset="1" stop-color="#EEEEEE"/>
</linearGradient>
</defs>
</svg>
