<svg width="24" height="24" viewBox="0 0 24 24" fill="none" xmlns="http://www.w3.org/2000/svg">
<path d="M22.5011 12.2331C22.5011 11.3698 22.4296 10.7398 22.2749 10.0864H12.2153V13.983H18.1201C18.0011 14.9514 17.3582 16.4097 15.9296 17.3897L15.9096 17.5202L19.0902 19.9349L19.3106 19.9564C21.3343 18.1247 22.5011 15.4297 22.5011 12.2331" fill="#4285F4"/>
<path d="M12.2147 22.5001C15.1075 22.5001 17.536 21.5667 19.3099 19.9567L15.9289 17.39C15.0242 18.0083 13.8099 18.44 12.2147 18.44C9.38138 18.44 6.97664 16.6083 6.11942 14.0767L5.99377 14.0871L2.68652 16.5955L2.64326 16.7133C4.40514 20.1433 8.02419 22.5001 12.2147 22.5001Z" fill="#34A853"/>
<path d="M6.12005 14.0765C5.89386 13.4232 5.76296 12.7231 5.76296 11.9998C5.76296 11.2764 5.89386 10.5765 6.10815 9.92313L6.10216 9.78398L2.75345 7.23535L2.64388 7.28642C1.91772 8.70978 1.50105 10.3081 1.50105 11.9998C1.50105 13.6915 1.91772 15.2897 2.64388 16.7131L6.12005 14.0765" fill="#FBBC05"/>
<path d="M12.2147 5.55997C14.2266 5.55997 15.5837 6.41163 16.3576 7.12335L19.3814 4.23C17.5243 2.53834 15.1076 1.5 12.2147 1.5C8.02422 1.5 4.40515 3.85665 2.64326 7.28662L6.10754 9.92332C6.97667 7.39166 9.38142 5.55997 12.2147 5.55997" fill="#EB4335"/>
</svg>
