<svg width="276" height="135" viewBox="0 0 276 135" fill="none" xmlns="http://www.w3.org/2000/svg">
<path fill-rule="evenodd" clip-rule="evenodd" d="M206.162 0C221.713 0 234.435 12.0765 234.435 26.839C234.435 41.6016 221.713 53.6781 206.162 53.6781C203.042 53.6781 200.487 56.1038 200.487 59.0653C200.487 62.0267 203.042 64.452 206.162 64.452H220.956C228.542 64.452 234.75 70.3454 234.75 77.5469C234.75 84.7484 228.542 90.6414 220.956 90.6414C214.395 90.6414 209.026 95.738 209.026 101.967C209.026 113.33 199.232 122.628 187.26 122.628H59.4916C43.9404 122.628 31.2187 110.552 31.2187 95.789C31.2187 81.0265 43.9404 68.95 59.4916 68.95H62.2262C65.3462 68.95 67.9012 66.5274 67.9012 63.5628C67.9012 60.6014 65.3492 58.176 62.2262 58.176H43.8175C36.2308 58.176 30.0233 52.2827 30.0233 45.0812C30.0233 37.8884 36.2154 32.0014 43.7887 31.9867H58.6021C65.1633 31.9867 70.5321 26.8901 70.5321 20.6615C70.5321 9.29763 80.3262 0 92.2975 0H206.162V0Z" fill="url(#paint0_linear_7766_12690)"/>
<path d="M151.141 58.7767L146.022 57.2872L123.77 56.6606L118.751 57.9712L119.406 69.669L130.76 76.5987L141.772 76.3875L148.695 70.353L150.232 64.3699L151.141 58.7767Z" fill="#885043"/>
<path d="M86.8954 77.5895C88.5058 74.4124 90.0495 71.8619 91.4262 69.8483C94.1288 65.8805 98.2626 63.0023 103.04 61.7619L121.19 57.0571C121.19 57.0571 122.132 74.406 134.615 74.406C147.098 74.406 149.531 58.1373 149.531 58.1373L170.534 66.1535C171.255 66.4217 176.127 68.0328 181.794 79.6605C187.193 90.7322 189.552 96.4023 189.552 96.4023L167.914 102.379L166.565 120.994L167.025 131.625L101.35 131.484L101.717 119.332L101.443 100.698L100.621 101.97L78.7629 93.5832C78.7629 93.5832 81.5762 88.0601 86.8954 77.5895V77.5895Z" fill="#A855F7"/>
<path d="M136.736 64.9659C131.41 64.8719 125.358 54.9329 125.358 54.9329L125.011 29.4024C124.732 22.049 129.514 15.7838 138.133 15.7495L138.933 15.7838C146.955 16.1501 153.307 21.7079 153.522 28.5566C153.725 34.9307 153.846 41.9724 153.585 45.3742C153.04 52.4159 144.642 51.2273 144.642 51.2273C144.625 51.2273 144.665 54.7747 144.642 56.8465C144.578 61.4995 138.875 65.1242 136.736 64.9659Z" fill="#885043"/>
<path d="M127.672 30.8028C127.525 30.7359 121.788 28.9032 121.66 34.3243C121.532 39.7453 127.538 38.7457 127.55 38.5899C127.562 38.4344 127.672 30.8028 127.672 30.8028V30.8028ZM187.688 96.9197L196.489 113.815C197.472 115.703 197.932 117.8 197.825 119.907C197.491 126.465 191.831 131.624 184.968 131.624L159.523 131.242L158.626 119.21L177.831 114.78L170.554 101.618L187.688 96.9197V96.9197ZM79.8788 94.0113C79.8788 94.0113 74.4192 109.526 68.465 123.628C68.3446 123.909 68.2113 124.433 68.1042 124.721C66.7608 128.217 70.8037 131.624 74.8871 131.624L109.295 131.567V120.866L87.8912 116.519L95.6429 100.052L79.8788 94.0113Z" fill="#885043"/>
<path d="M148.842 120.374C148.836 120.412 148.054 120.176 146.751 120.099C145.455 120.016 143.617 120.156 141.786 120.904C139.955 121.652 138.571 122.822 137.743 123.774C136.901 124.727 136.54 125.436 136.507 125.411C136.493 125.405 136.573 125.226 136.754 124.919C136.934 124.612 137.222 124.177 137.629 123.685C138.445 122.694 139.835 121.48 141.705 120.719C143.577 119.958 145.455 119.83 146.764 119.958C147.419 120.016 147.947 120.118 148.301 120.207C148.655 120.29 148.849 120.361 148.842 120.374V120.374ZM147.666 117.785C147.653 117.836 146.858 117.459 145.488 117.42C144.125 117.363 142.207 117.759 140.416 118.795C138.625 119.837 137.282 121.154 136.333 122.099C135.878 122.56 135.504 122.943 135.21 123.237C134.943 123.506 134.796 123.653 134.782 123.64C134.769 123.634 134.903 123.467 135.15 123.186C135.498 122.785 135.854 122.391 136.219 122.004C137.148 121.032 138.485 119.683 140.309 118.622C142.133 117.567 144.105 117.184 145.495 117.28C146.19 117.318 146.744 117.439 147.112 117.561C147.299 117.612 147.432 117.676 147.526 117.714C147.62 117.753 147.666 117.778 147.666 117.785Z" fill="#EB996E"/>
<path d="M102.058 118.904H106.997C106.997 118.904 118.143 115.049 120.435 115.42C122.5 115.752 130.058 120.553 131.541 121.505C131.708 121.614 131.829 121.761 131.902 121.94C132.047 122.316 132.035 122.731 131.866 123.099C131.698 123.466 131.388 123.756 131 123.909L130.846 123.973L130.913 124.19C131 124.459 131.04 124.759 131.027 125.053C130.973 126.07 129.543 126.376 129.002 125.5L129.29 125.986C129.403 126.184 129.463 126.408 129.45 126.632L129.423 127.073C129.409 127.312 129.319 127.541 129.167 127.73C129.014 127.92 128.805 128.06 128.568 128.134C128.342 128.206 128.099 128.214 127.869 128.156C127.639 128.098 127.431 127.977 127.271 127.808C126.316 126.798 124.244 124.778 122.841 124.555C121.598 124.356 119.52 124.331 118.263 124.337C117.952 124.338 117.648 124.428 117.392 124.597C117.135 124.766 116.938 125.005 116.827 125.283C117.655 125.341 123.449 128.23 125.5 129.266C126.135 129.586 126.61 130.161 126.69 130.845C126.763 131.458 126.443 132.104 125.173 131.816C122.447 131.209 117.548 129.055 117.548 129.055C117.548 129.055 115.022 128.364 113.385 129.47C111.08 131.024 110.024 131.592 108.046 130.966C106.068 130.34 104.611 129.438 104.611 129.438L100.715 129.067C100.702 129.067 97.0196 120.259 102.058 118.904V118.904Z" fill="#885043"/>
<path d="M116.78 120.706C116.787 120.744 117.568 120.508 118.871 120.431C120.168 120.348 122.005 120.489 123.837 121.237C125.667 121.985 127.051 123.155 127.88 124.107C128.722 125.059 129.082 125.769 129.116 125.743C129.129 125.737 129.049 125.558 128.868 125.251C128.61 124.819 128.318 124.406 127.993 124.018C127.178 123.027 125.788 121.812 123.917 121.051C122.045 120.291 120.168 120.163 118.858 120.291C118.339 120.334 117.826 120.417 117.321 120.54C116.967 120.63 116.773 120.693 116.78 120.706V120.706ZM117.956 118.117C117.969 118.168 118.764 117.791 120.134 117.753C121.497 117.695 123.415 118.091 125.206 119.127C126.997 120.169 128.34 121.486 129.289 122.432C129.744 122.892 130.118 123.276 130.412 123.57C130.679 123.839 130.826 123.985 130.84 123.973C130.853 123.966 130.72 123.8 130.472 123.519C130.124 123.118 129.768 122.723 129.403 122.336C128.474 121.365 127.137 120.016 125.313 118.955C123.489 117.9 121.517 117.516 120.127 117.612C119.432 117.651 118.878 117.772 118.51 117.893C118.323 117.945 118.19 118.009 118.096 118.047C118.002 118.085 117.956 118.111 117.956 118.117V118.117Z" fill="#EB996E"/>
<path d="M108.741 131.925H160.59C161.3 131.926 161.981 131.664 162.493 131.194C163.005 130.725 163.307 130.084 163.337 129.406L164.894 95.2706C164.961 93.7747 163.711 92.522 162.147 92.522H107.284C105.72 92.522 104.47 93.7683 104.531 95.2642L105.987 129.406C106.047 130.813 107.264 131.925 108.741 131.925Z" fill="#31446C"/>
<path d="M129.476 112.855C129.476 113.521 129.612 114.181 129.879 114.797C130.145 115.412 130.535 115.972 131.028 116.443C131.52 116.914 132.105 117.288 132.749 117.542C133.392 117.797 134.082 117.928 134.778 117.927C135.475 117.928 136.165 117.797 136.808 117.543C137.452 117.288 138.037 116.914 138.529 116.443C139.022 115.972 139.412 115.413 139.678 114.797C139.945 114.181 140.081 113.521 140.081 112.855C140.081 112.189 139.945 111.529 139.678 110.913C139.412 110.298 139.021 109.739 138.529 109.267C138.036 108.796 137.452 108.423 136.808 108.168C136.165 107.913 135.475 107.783 134.778 107.783C131.847 107.783 129.476 110.063 129.476 112.855Z" fill="white"/>
<path d="M129.677 40.6797H124.999V59.8568H129.677V40.6797Z" fill="#885043"/>
<path d="M127.841 23.5445C128.684 24.5847 130.17 24.8139 131.395 25.02C133.041 25.2962 133.855 25.8722 134.71 27.4182C135.251 28.4055 135.792 29.4873 136.76 30.0221C137.547 30.459 137.519 29.3454 137.644 28.4832C137.655 28.4068 137.672 28.3311 137.692 28.2564C137.882 27.5681 138.649 27.6853 138.873 28.3645C139.078 28.9759 139.517 29.4932 140.075 29.781C140.166 29.828 140.263 29.8691 140.36 29.8516C140.491 29.834 140.593 29.7164 140.679 29.6108C140.858 29.3892 141.036 29.1074 141.22 28.8097C141.823 27.8304 142.966 28.1803 143.641 29.117C144.062 29.6989 144.563 30.2984 145.252 30.4335C145.475 30.4805 145.754 30.4454 145.856 30.2398C145.987 29.9867 145.782 29.734 145.817 29.4753C145.845 29.2346 145.953 29.1285 146.073 28.9229C146.542 28.1245 147.616 28.0958 148.277 28.7591C148.736 29.2201 149.215 29.663 149.712 30.0867C149.923 30.2633 150.23 30.4395 150.441 30.2633C150.555 30.1692 150.584 30.0102 150.607 29.8575C150.726 29.111 150.84 28.3645 150.96 27.6179C151.028 27.2006 151.262 26.6538 151.66 26.7598C151.854 26.8128 151.968 27.0065 152.076 27.1831C152.207 27.4063 154.548 29.9516 154.593 29.7575C154.958 28.3115 155.704 26.9949 156.069 25.5489C158.427 16.2437 147.964 8.7608 139.972 8.71974C138.196 8.70819 136.572 8.73569 134.847 9.12948C133.007 9.55277 131.065 10.2248 129.396 11.171C127.055 12.4935 125.283 14.8977 125.739 17.7663" fill="#31446C"/>
<path d="M132.043 20.399C133.219 21.6342 133.53 23.3716 133.64 25.013C133.801 27.4881 133.583 30.0598 132.349 32.2571C131.998 32.8829 131.738 35.9782 131.196 35.8073C131.023 35.7538 131.052 33.3532 130.597 32.0594C129.893 30.0546 126.654 29.2901 125.196 30.5572C122.868 32.5728 124.233 35.0213 125.006 36.545C125.467 37.4645 126.199 38.4965 126.326 39.4694C126.481 40.7153 126.528 45.2543 125.651 46.313C124.919 47.2002 124.141 42.9127 123.478 42.0677C118.573 35.7754 113.87 19.7521 122.245 16.2769C123.519 15.7476 127.45 15.475 128.643 16.1486" fill="#31446C"/>
<path fill-rule="evenodd" clip-rule="evenodd" d="M186.458 24.4998H188.018C188.395 24.4998 188.698 24.2065 188.698 23.8485V22.3567C188.698 21.9959 188.392 21.7054 188.018 21.7054H186.458C186.278 21.706 186.105 21.7748 185.977 21.8968C185.85 22.0188 185.778 22.1841 185.777 22.3567V23.8485C185.777 23.9341 185.794 24.0189 185.828 24.098C185.863 24.1771 185.913 24.249 185.976 24.3095C186.039 24.37 186.114 24.418 186.197 24.4507C186.28 24.4833 186.368 24.5 186.458 24.4998V24.4998ZM191.866 24.4998H193.425C193.606 24.4992 193.779 24.4304 193.906 24.3084C194.034 24.1864 194.106 24.0211 194.106 23.8485V22.3567C194.106 21.9959 193.8 21.7054 193.425 21.7054H191.866C191.685 21.706 191.513 21.7748 191.385 21.8968C191.258 22.0188 191.186 22.1841 191.185 22.3567V23.8485C191.186 24.0211 191.258 24.1864 191.385 24.3084C191.513 24.4304 191.685 24.4992 191.866 24.4998V24.4998ZM197.277 24.4998H198.837C199.017 24.4992 199.19 24.4304 199.317 24.3084C199.445 24.1864 199.517 24.0211 199.518 23.8485V22.3567C199.518 21.9959 199.211 21.7054 198.837 21.7054H197.277C197.097 21.706 196.924 21.7748 196.796 21.8968C196.669 22.0188 196.597 22.1841 196.596 22.3567V23.8485C196.596 23.9341 196.613 24.0189 196.648 24.098C196.682 24.1771 196.732 24.249 196.795 24.3095C196.858 24.37 196.934 24.418 197.016 24.4507C197.099 24.4833 197.188 24.5 197.277 24.4998V24.4998ZM202.685 24.4998H204.245C204.425 24.4992 204.598 24.4304 204.725 24.3084C204.853 24.1864 204.925 24.0211 204.925 23.8485V22.3567C204.925 21.9959 204.619 21.7054 204.245 21.7054H202.685C202.308 21.7054 202.001 21.9987 202.001 22.3567V23.8485C202.003 24.0212 202.076 24.1863 202.204 24.3081C202.332 24.4299 202.504 24.4988 202.685 24.4998V24.4998ZM208.093 24.4998H209.653C210.03 24.4998 210.337 24.2065 210.337 23.8485V22.3567C210.337 21.9959 210.03 21.7054 209.653 21.7054H208.093C207.913 21.706 207.74 21.7748 207.613 21.8968C207.485 22.0188 207.413 22.1841 207.412 22.3567V23.8485C207.413 24.0211 207.485 24.1864 207.613 24.3084C207.74 24.4304 207.913 24.4992 208.093 24.4998V24.4998ZM192.064 18.8591H193.624C193.997 18.8591 194.305 18.5654 194.305 18.2079V16.7124C194.304 16.5399 194.232 16.3747 194.104 16.2528C193.977 16.1309 193.804 16.0622 193.624 16.0615H192.064C191.687 16.0615 191.383 16.3549 191.383 16.7124V18.2047C191.383 18.2905 191.4 18.3756 191.434 18.455C191.468 18.5344 191.518 18.6067 191.581 18.6675C191.645 18.7283 191.72 18.7766 191.803 18.8095C191.886 18.8424 191.974 18.8592 192.064 18.8591V18.8591ZM197.472 18.8591H199.032C199.212 18.8585 199.385 18.7897 199.512 18.6677C199.64 18.5457 199.712 18.3804 199.713 18.2079V16.7124C199.712 16.5399 199.64 16.3747 199.512 16.2528C199.385 16.1309 199.212 16.0622 199.032 16.0615H197.472C197.292 16.0622 197.119 16.1309 196.992 16.2528C196.864 16.3747 196.792 16.5399 196.791 16.7124V18.2047C196.791 18.2905 196.808 18.3756 196.842 18.455C196.876 18.5344 196.926 18.6067 196.989 18.6675C197.053 18.7283 197.128 18.7766 197.211 18.8095C197.294 18.8424 197.382 18.8592 197.472 18.8591V18.8591ZM202.88 18.8591H204.44C204.817 18.8591 205.124 18.5654 205.124 18.2079V16.7124C205.124 16.3549 204.817 16.0615 204.44 16.0615H202.88C202.7 16.0622 202.527 16.1309 202.399 16.2528C202.272 16.3747 202.2 16.5399 202.199 16.7124V18.2047C202.199 18.5654 202.506 18.8591 202.88 18.8591V18.8591ZM197.277 30.5602H198.837C199.017 30.5595 199.19 30.4907 199.317 30.3687C199.445 30.2467 199.517 30.0814 199.518 29.9089V28.4166C199.518 28.0559 199.211 27.7654 198.837 27.7654H197.277C197.097 27.766 196.924 27.8348 196.796 27.9568C196.669 28.0788 196.597 28.2441 196.596 28.4166V29.9089C196.596 29.9945 196.613 30.0793 196.648 30.1584C196.682 30.2375 196.732 30.3094 196.795 30.3699C196.858 30.4304 196.934 30.4784 197.016 30.511C197.099 30.5437 197.188 30.5604 197.277 30.5602V30.5602ZM202.685 30.5602H204.245C204.425 30.5595 204.598 30.4907 204.725 30.3687C204.853 30.2467 204.925 30.0814 204.925 29.9089V28.4166C204.925 28.0559 204.619 27.7654 204.245 27.7654H202.685C202.308 27.7654 202.001 28.0591 202.001 28.4166V29.9089C202.003 30.0816 202.076 30.2466 202.204 30.3685C202.332 30.4903 202.504 30.5591 202.685 30.5602V30.5602Z" fill="#E1E4E5"/>
<path d="M212.31 59.5947C212.406 56.7278 213.086 53.7966 214.284 51.0572C229.877 56.2893 225.308 50.1441 215.874 48.0623C218.412 43.9992 222.262 40.7029 227.301 39.178C233.402 37.3334 240.634 41.534 245.299 47.7339C237.962 50.6463 239.523 59.9144 247.128 50.4821C248.651 53.0935 249.695 55.9059 250.05 58.7091C250.94 65.6121 247.617 72.3871 236.86 75.4004C219.523 80.2853 211.927 70.3966 212.31 59.5947V59.5947ZM223.211 56.0701C218.632 56.1981 225.04 61.1014 228.47 58.7274C230.615 57.23 227.799 55.9422 223.211 56.0701Z" fill="#A855F7"/>
<path d="M241.046 130.103C241.802 74.2132 227.31 39.187 227.31 39.187" stroke="#A855F7" stroke-width="2.5" stroke-miterlimit="10"/>
<path d="M244.922 63.2283C247.317 72.8982 249.99 67.5107 247.097 61.1557C251.8 57.3023 258.697 55.2939 266.35 57.4394C272.528 59.1744 275.459 63.3563 275.938 68.0679C266.043 67.6111 263.63 73.6559 275.986 70.3047C275.401 80.8419 263.764 92.484 249.262 85.3159C238.62 80.0567 238.917 69.9488 244.922 63.2283ZM259.262 76.1211C264.511 77.4636 264.769 73.7655 260.181 73.2542C256.915 72.8891 254.012 74.7791 259.262 76.1211Z" fill="#A855F7"/>
<path d="M245.567 112.363C243.162 77.2726 264.159 59.604 264.159 59.604" stroke="#A855F7" stroke-width="2.5" stroke-miterlimit="10"/>
<path d="M203.609 83.8781C198.513 77.5228 198.389 67.1227 202.306 64.0181C206.013 61.0782 210.745 60.7219 215.305 61.9272C214.145 68.538 219.797 71.4417 218.446 63.0229C229.069 67.5611 237.009 79.8604 225.19 85.9415C216.186 90.5619 209.749 89.4207 205.563 85.9053C220.812 84.9738 213.005 81.0382 203.609 83.8781ZM207.594 73.1858C203.149 74.4366 203.772 75.7698 208.695 76.1258C213.609 76.4821 213.331 71.5879 207.594 73.1858Z" fill="#A855F7"/>
<path d="M232.578 112.043C234.044 77.2718 205.347 64.5615 205.347 64.5615" stroke="#A855F7" stroke-width="2.5" stroke-miterlimit="10"/>
<path d="M261.639 108.22H216.373L222.608 125.063C224.204 129.373 228.486 132.265 233.288 132.265H244.734C249.536 132.265 253.818 129.381 255.413 125.063L256.199 125.329L255.413 125.063L261.639 108.22V108.22Z" fill="white" stroke="#E1E4E5" stroke-width="4"/>
<path d="M268.032 107.63V105.033H210.542V107.63H268.032Z" fill="#E1E4E5" stroke="#E1E4E5" stroke-width="4"/>
<path d="M38.1475 108.562L40.0537 131.243H53.245L55.1554 108.562H38.1475Z" fill="#A855F7"/>
<path d="M37.0566 106.517H56.4483V109.822H37.0566V106.517ZM38.3854 106.517H55.12L54.1429 102.8H39.3666L38.3854 106.517Z" fill="#31446C"/>
<path d="M42.8741 120.113C42.874 120.601 42.9743 121.083 43.1691 121.533C43.364 121.983 43.6497 122.392 44.0098 122.737C44.37 123.081 44.7976 123.355 45.2682 123.541C45.7388 123.727 46.2431 123.823 46.7525 123.823C47.2618 123.823 47.7662 123.727 48.2368 123.541C48.7074 123.355 49.135 123.081 49.4951 122.737C49.8553 122.392 50.141 121.983 50.3358 121.533C50.5307 121.083 50.6309 120.601 50.6308 120.113C50.631 119.626 50.5308 119.144 50.3359 118.693C50.1411 118.243 49.8554 117.834 49.4953 117.49C49.1351 117.145 48.7075 116.872 48.2369 116.685C47.7662 116.499 47.2618 116.403 46.7525 116.403C46.2431 116.403 45.7388 116.499 45.2682 116.686C44.7976 116.872 44.37 117.145 44.0098 117.49C43.6497 117.834 43.364 118.243 43.1691 118.693C42.9743 119.144 42.874 119.626 42.8741 120.113V120.113Z" fill="white"/>
<path fill-rule="evenodd" clip-rule="evenodd" d="M77.6725 35.0306V16.1241C77.6725 14.1654 76.0175 12.5791 73.9741 12.5791H51.7858C49.7425 12.5791 48.0875 14.1654 48.0875 16.1241V35.0306C48.0872 35.6624 48.2635 36.2828 48.5981 36.8276C48.9327 37.3724 49.4133 37.8217 49.9904 38.1291L61.0846 44.0365C61.6337 44.3294 62.252 44.4831 62.8808 44.4831C63.5096 44.4831 64.1279 44.3294 64.6771 44.0365L75.7716 38.1291C76.348 37.8211 76.828 37.3716 77.1622 36.8269C77.4963 36.2822 77.6725 35.6621 77.6725 35.0306Z" fill="#E1E4E5"/>
<path d="M69.0292 33.5659H56.73M69.0292 28.2126H56.73H69.0292ZM69.0292 22.7007H56.73H69.0292Z" stroke="white" stroke-width="2.677" stroke-linecap="round" stroke-linejoin="round"/>
<path d="M1.8779 131.222H267.679C268.716 131.222 269.557 132.026 269.557 133.018C269.557 134.01 268.716 134.815 267.679 134.815H1.8779C0.840759 134.815 0 134.01 0 133.018C0 132.026 0.840759 131.222 1.8779 131.222Z" fill="#E1E4E5"/>
<path d="M62.0748 86.4422L69.6697 93.7074C69.9463 93.972 69.9464 94.401 69.6699 94.6655C69.3933 94.93 68.9449 94.93 68.6683 94.6654L61.0734 87.4001C60.7968 87.1355 60.7967 86.7066 61.0732 86.442C61.3498 86.1775 61.7982 86.1776 62.0748 86.4422Z" fill="#E1E4E5"/>
<path d="M62.8183 91.6435L65.0086 93.7387C65.2852 94.0033 65.2853 94.4322 65.0087 94.6968C64.7322 94.9613 64.2838 94.9612 64.0072 94.6966L61.8169 92.6014C61.5403 92.3368 61.5402 91.9079 61.8168 91.6433C62.0933 91.3788 62.5417 91.3789 62.8183 91.6435Z" fill="#E1E4E5"/>
<defs>
<linearGradient id="paint0_linear_7766_12690" x1="128.022" y1="191.381" x2="130.286" y2="-133.427" gradientUnits="userSpaceOnUse">
<stop stop-color="white"/>
<stop offset="1" stop-color="#EEEEEE"/>
</linearGradient>
</defs>
</svg>
