<svg width="374" height="250" viewBox="0 0 374 250" fill="none" xmlns="http://www.w3.org/2000/svg">
<path d="M276.986 68.1731C269.379 43.3435 203.627 11.2973 151.682 51.1352C127.523 69.6644 135.022 82.9619 121.112 109.213C112.82 124.859 98.1329 139.778 99.1142 157.741C99.9579 173.247 108.071 187.271 119.047 194.302C143.731 210.116 182.84 212.8 203.286 166.123C223.731 119.445 296.599 132.213 276.986 68.1731Z" fill="url(#paint0_linear_7766_12722)"/>
<path d="M299.368 146.129C294.175 139.454 285.072 139.808 270.941 143.367C260.315 146.046 250.602 148.344 240.707 155.859C233.78 161.116 228.648 167.586 225.105 173.652C221.265 180.224 215.681 187.906 219.921 194.055C225.747 202.501 252.612 206.288 275.667 189.946C300.991 171.99 304.446 152.653 299.368 146.129Z" fill="url(#paint1_linear_7766_12722)"/>
<path d="M117.699 86.9056C110.403 106.36 103.1 126.916 89.7425 139.656C75.9654 152.801 71.5321 148.162 68.0992 139.819C64.6658 131.476 64.1592 109.665 83.0642 92.1118C101.975 74.5539 124.525 68.6989 117.699 86.9056Z" fill="url(#paint2_linear_7766_12722)"/>
<path fill-rule="evenodd" clip-rule="evenodd" d="M133.324 63.9209H246.93C255.896 63.9209 263.159 71.1834 263.159 80.1501V83.2742H117.095V80.1501C117.095 71.1834 124.357 63.9209 133.324 63.9209ZM117.095 104.225V185.641C117.095 194.608 124.357 201.87 133.324 201.87H246.93C255.896 201.87 263.159 194.608 263.159 185.641V104.225H117.095Z" fill="#A855F7"/>
<path d="M263.159 83.274V88.5169C266.054 88.5169 268.402 86.1698 268.402 83.274H263.159ZM117.095 83.274H111.852C111.852 86.1698 114.199 88.5169 117.095 88.5169V83.274ZM117.095 104.224V98.9815C114.199 98.9815 111.852 101.329 111.852 104.224H117.095ZM263.159 104.224H268.402C268.402 101.329 266.054 98.9815 263.159 98.9815V104.224ZM246.93 58.6777H133.324V69.1636H246.93V58.6777ZM268.402 80.1498C268.402 68.2877 258.792 58.6777 246.93 58.6777V69.1636C253 69.1636 257.916 74.0786 257.916 80.1498H268.402ZM268.402 83.274V80.1498H257.916V83.274H268.402ZM117.095 88.5169H263.159V78.0311H117.095V88.5169ZM111.852 80.1498V83.274H122.338V80.1498H111.852ZM133.324 58.6777C121.462 58.6777 111.852 68.2877 111.852 80.1498H122.338C122.338 74.0786 127.253 69.1636 133.324 69.1636V58.6777ZM111.852 104.224V185.641H122.338V104.224H111.852ZM111.852 185.641C111.852 197.503 121.462 207.113 133.324 207.113V196.627C127.253 196.627 122.338 191.711 122.338 185.641H111.852ZM133.324 207.113H246.93V196.627H133.324V207.113ZM246.93 207.113C258.792 207.113 268.402 197.503 268.402 185.641H257.916C257.916 191.711 253 196.627 246.93 196.627V207.113ZM268.402 185.641V104.224H257.916V185.641H268.402ZM263.159 98.9815H117.095V109.467H263.159V98.9815Z" fill="#A855F7"/>
<path d="M143.406 119.345H134.53C130.642 119.345 127.49 122.497 127.49 126.385V135.261C127.49 139.149 130.642 142.301 134.53 142.301H143.406C147.294 142.301 150.446 139.149 150.446 135.261V126.385C150.446 122.497 147.294 119.345 143.406 119.345Z" fill="white"/>
<path d="M143.406 154.956H134.53C130.642 154.956 127.49 158.108 127.49 161.996V170.872C127.49 174.76 130.642 177.911 134.53 177.911H143.406C147.294 177.911 150.446 174.76 150.446 170.872V161.996C150.446 158.108 147.294 154.956 143.406 154.956Z" fill="white"/>
<path d="M177.585 119.345H168.333C164.445 119.345 161.293 122.497 161.293 126.385V135.261C161.293 139.149 164.445 142.301 168.333 142.301H177.585C181.473 142.301 184.625 139.149 184.625 135.261V126.385C184.625 122.497 181.473 119.345 177.585 119.345Z" fill="white"/>
<path d="M177.585 154.956H168.333C164.445 154.956 161.293 158.108 161.293 161.996V170.872C161.293 174.76 164.445 177.911 168.333 177.911H177.585C181.473 177.911 184.625 174.76 184.625 170.872V161.996C184.625 158.108 181.473 154.956 177.585 154.956Z" fill="white"/>
<path d="M211.388 119.345H202.512C198.624 119.345 195.472 122.497 195.472 126.385V135.261C195.472 139.149 198.624 142.301 202.512 142.301H211.388C215.276 142.301 218.428 139.149 218.428 135.261V126.385C218.428 122.497 215.276 119.345 211.388 119.345Z" fill="white"/>
<path d="M211.388 154.956H202.512C198.624 154.956 195.472 158.108 195.472 161.996V170.872C195.472 174.76 198.624 177.911 202.512 177.911H211.388C215.276 177.911 218.428 174.76 218.428 170.872V161.996C218.428 158.108 215.276 154.956 211.388 154.956Z" fill="white"/>
<path d="M245.191 119.345H236.315C232.427 119.345 229.275 122.497 229.275 126.385V135.261C229.275 139.149 232.427 142.301 236.315 142.301H245.191C249.079 142.301 252.23 139.149 252.23 135.261V126.385C252.23 122.497 249.079 119.345 245.191 119.345Z" fill="white"/>
<path d="M140.639 44.9058H140.639C138.033 44.9058 135.92 47.0184 135.92 49.6245V73.8937C135.92 76.4998 138.033 78.6124 140.639 78.6124H140.639C143.245 78.6124 145.358 76.4998 145.358 73.8937V49.6245C145.358 47.0184 143.245 44.9058 140.639 44.9058Z" fill="#A855F7"/>
<path d="M206.255 44.9058H206.255C203.648 44.9058 201.536 47.0184 201.536 49.6245V73.8937C201.536 76.4998 203.648 78.6124 206.255 78.6124H206.255C208.861 78.6124 210.974 76.4998 210.974 73.8937V49.6245C210.974 47.0184 208.861 44.9058 206.255 44.9058Z" fill="#A855F7"/>
<path d="M173.447 44.9058H173.447C170.841 44.9058 168.728 47.0184 168.728 49.6245V73.8937C168.728 76.4998 170.841 78.6124 173.447 78.6124H173.447C176.053 78.6124 178.166 76.4998 178.166 73.8937V49.6245C178.166 47.0184 176.053 44.9058 173.447 44.9058Z" fill="#A855F7"/>
<path d="M239.063 44.9058H239.063C236.456 44.9058 234.344 47.0184 234.344 49.6245V73.8937C234.344 76.4998 236.456 78.6124 239.063 78.6124H239.063C241.669 78.6124 243.782 76.4998 243.782 73.8937V49.6245C243.782 47.0184 241.669 44.9058 239.063 44.9058Z" fill="#A855F7"/>
<path fill-rule="evenodd" clip-rule="evenodd" d="M284.21 158.865C297.624 172.279 297.624 194.029 284.21 207.443C270.795 220.858 249.045 220.858 235.631 207.443C222.216 194.029 222.216 172.279 235.631 158.865C249.045 145.45 270.795 145.45 284.21 158.865Z" fill="#A855F7"/>
<path d="M284.21 158.865C297.624 172.279 297.624 194.029 284.21 207.443C270.795 220.858 249.045 220.858 235.631 207.443C222.216 194.029 222.216 172.279 235.631 158.865C249.045 145.45 270.795 145.45 284.21 158.865" stroke="white" stroke-width="14.287" stroke-linecap="round" stroke-linejoin="round"/>
<path d="M273.659 193.616L259.978 185.456V167.868" stroke="white" stroke-width="10.404" stroke-linecap="round" stroke-linejoin="round"/>
<path d="M292.503 74.3944C288.438 76.7414 283.24 75.3486 280.893 71.2835C278.546 67.2184 279.939 62.0204 284.004 59.6734C288.069 57.3264 293.267 58.7192 295.614 62.7843C297.961 66.8494 296.568 72.0474 292.503 74.3944Z" fill="#A855F7"/>
<path d="M292.794 100.638C292.794 102.75 291.083 104.461 288.972 104.461C286.861 104.461 285.149 102.75 285.149 100.638C285.149 98.5273 286.861 96.8159 288.972 96.8159C291.083 96.8159 292.794 98.5273 292.794 100.638Z" fill="#E1E4E5"/>
<path d="M102.438 92.5445C100.576 92.5445 99.0671 94.0536 99.0671 95.9153C99.0671 97.777 100.576 99.2861 102.438 99.2861C104.3 99.2861 105.809 97.777 105.809 95.9153C105.809 94.0536 104.3 92.5445 102.438 92.5445Z" fill="#E1E4E5"/>
<path d="M66.9333 176.587C70.5324 176.587 73.45 179.505 73.45 183.104C73.45 186.703 70.5324 189.621 66.9333 189.621C63.3343 189.621 60.4167 186.703 60.4167 183.104C60.4167 179.505 63.3343 176.587 66.9333 176.587Z" fill="#E1E4E5"/>
<path d="M193.496 48.9045C191.407 50.1111 188.734 49.3951 187.528 47.3053C186.321 45.2156 187.037 42.5434 189.127 41.3369C191.217 40.1304 193.889 40.8464 195.096 42.9362C196.302 45.0259 195.586 47.698 193.496 48.9045Z" fill="#E1E4E5"/>
<path d="M130.527 66.0288C132.264 66.0288 133.672 64.5196 133.672 62.6579C133.672 60.7963 132.264 59.2871 130.527 59.2871C128.789 59.2871 127.381 60.7963 127.381 62.6579C127.381 64.5196 128.789 66.0288 130.527 66.0288Z" fill="#A855F7"/>
<path d="M306.35 137.524C301.748 134.866 295.863 136.443 293.206 141.045C290.549 145.648 292.126 151.532 296.728 154.189C301.33 156.847 307.215 155.27 309.872 150.668C312.529 146.065 310.952 140.181 306.35 137.524Z" fill="#A855F7"/>
<path d="M83.5879 126.741C81.5181 125.546 78.8715 126.255 77.6764 128.325C76.4814 130.394 77.1906 133.041 79.2604 134.236C81.3302 135.431 83.9769 134.722 85.1719 132.652C86.3669 130.582 85.6577 127.936 83.5879 126.741Z" fill="#A855F7"/>
<path d="M95.6967 158.61C93.835 158.61 92.3258 157.101 92.3258 155.239C92.3258 153.377 93.835 151.868 95.6967 151.868C97.5583 151.868 99.0675 153.377 99.0675 155.239C99.0675 157.101 97.5583 158.61 95.6967 158.61Z" fill="#E1E4E5"/>
<path d="M286.357 128.372C287.572 129.073 287.988 130.627 287.287 131.842C286.585 133.058 285.031 133.474 283.816 132.772C282.601 132.071 282.184 130.517 282.886 129.302C283.587 128.086 285.141 127.67 286.357 128.372Z" fill="#E1E4E5"/>
<path d="M77.0454 81.309C81.0168 81.309 84.2363 78.1901 84.2363 74.3427C84.2363 70.4954 81.0168 67.3765 77.0454 67.3765C73.074 67.3765 69.8546 70.4954 69.8546 74.3427C69.8546 78.1901 73.074 81.309 77.0454 81.309Z" fill="#E1E4E5"/>
<path d="M225.817 213.303C223.243 213.303 221.156 215.389 221.156 217.963C221.156 220.537 223.243 222.624 225.817 222.624C228.391 222.624 230.477 220.537 230.477 217.963C230.477 215.389 228.391 213.303 225.817 213.303Z" fill="#E1E4E5"/>
<defs>
<linearGradient id="paint0_linear_7766_12722" x1="166.58" y1="-56.8906" x2="224.864" y2="377.439" gradientUnits="userSpaceOnUse">
<stop stop-color="white"/>
<stop offset="1" stop-color="#EEEEEE"/>
</linearGradient>
<linearGradient id="paint1_linear_7766_12722" x1="264.671" y1="103.026" x2="253.044" y2="272.247" gradientUnits="userSpaceOnUse">
<stop stop-color="white"/>
<stop offset="1" stop-color="#EEEEEE"/>
</linearGradient>
<linearGradient id="paint2_linear_7766_12722" x1="90.3054" y1="36.7989" x2="99.4617" y2="224.134" gradientUnits="userSpaceOnUse">
<stop stop-color="white"/>
<stop offset="1" stop-color="#EEEEEE"/>
</linearGradient>
</defs>
</svg>
