<svg width="375" height="240" viewBox="0 0 375 240" fill="none" xmlns="http://www.w3.org/2000/svg">
<g clip-path="url(#clip0_7766_12690)">
<path fill-rule="evenodd" clip-rule="evenodd" d="M255.355 55.9307C270.906 55.9307 283.628 68.0072 283.628 82.7697C283.628 97.5322 270.906 109.609 255.355 109.609C252.235 109.609 249.68 112.034 249.68 114.996C249.68 117.957 252.235 120.383 255.355 120.383H270.149C277.735 120.383 283.943 126.276 283.943 133.478C283.943 140.679 277.735 146.572 270.149 146.572C263.588 146.572 258.219 151.669 258.219 157.897C258.219 169.261 248.425 178.559 236.454 178.559H108.685C93.1338 178.559 80.4121 166.482 80.4121 151.72C80.4121 136.957 93.1338 124.881 108.685 124.881H111.42C114.54 124.881 117.095 122.458 117.095 119.493C117.095 116.532 114.543 114.107 111.42 114.107H93.0108C85.4242 114.107 79.2167 108.213 79.2167 101.012C79.2167 93.8191 85.4088 87.9321 92.9821 87.9173H107.795C114.357 87.9173 119.725 82.8207 119.725 76.5921C119.725 65.2283 129.52 55.9307 141.491 55.9307H255.355Z" fill="url(#paint0_linear_7766_12690)"/>
<path d="M200.335 114.707L195.216 113.218L172.963 112.591L167.944 113.902L168.599 125.6L179.953 132.529L190.965 132.318L197.889 126.284L199.426 120.301L200.335 114.707Z" fill="#885043"/>
<path d="M136.089 133.52C137.699 130.343 139.243 127.793 140.62 125.779C143.322 121.811 147.456 118.933 152.234 117.693L170.383 112.988C170.383 112.988 171.326 130.337 183.809 130.337C196.292 130.337 198.724 114.068 198.724 114.068L219.727 122.084C220.449 122.352 225.32 123.963 230.987 135.591C236.387 146.663 238.746 152.333 238.746 152.333L217.107 158.31L215.758 176.924L216.219 187.555L150.543 187.415L150.91 175.262L150.637 156.628L149.815 157.901L127.956 149.514C127.956 149.514 130.77 143.991 136.089 133.52Z" fill="#A855F7"/>
<path d="M185.93 120.897C180.603 120.803 174.552 110.864 174.552 110.864L174.204 85.3331C173.926 77.9797 178.707 71.7145 187.326 71.6802L188.126 71.7145C196.148 72.0807 202.5 77.6385 202.715 84.4873C202.918 90.8613 203.04 97.903 202.779 101.305C202.234 108.347 193.835 107.158 193.835 107.158C193.818 107.158 193.858 110.705 193.835 112.777C193.772 117.43 188.068 121.055 185.93 120.897Z" fill="#885043"/>
<path d="M176.865 86.7335C176.719 86.6665 170.981 84.8339 170.853 90.2549C170.725 95.676 176.731 94.6764 176.743 94.5205C176.755 94.3651 176.865 86.7335 176.865 86.7335ZM236.881 152.85L245.682 169.746C246.665 171.633 247.126 173.731 247.019 175.838C246.685 182.396 241.025 187.555 234.162 187.555L208.716 187.172L207.819 175.141L227.025 170.711L219.747 157.549L236.881 152.85ZM129.072 149.942C129.072 149.942 123.613 165.457 117.658 179.558C117.538 179.839 117.405 180.364 117.298 180.651C115.954 184.148 119.997 187.555 124.08 187.555L158.489 187.498V176.797L137.085 172.45L144.836 155.983L129.072 149.942Z" fill="#885043"/>
<path d="M198.036 176.304C198.029 176.343 197.247 176.106 195.944 176.029C194.648 175.946 192.81 176.087 190.979 176.835C189.148 177.583 187.765 178.753 186.936 179.705C186.094 180.658 185.733 181.367 185.7 181.342C185.687 181.335 185.767 181.156 185.947 180.849C186.127 180.542 186.415 180.108 186.822 179.616C187.638 178.625 189.028 177.41 190.899 176.649C192.77 175.889 194.648 175.761 195.957 175.889C196.612 175.946 197.14 176.048 197.495 176.138C197.849 176.221 198.042 176.292 198.036 176.304ZM196.86 173.716C196.846 173.767 196.051 173.39 194.681 173.351C193.318 173.293 191.4 173.69 189.609 174.726C187.818 175.767 186.475 177.084 185.526 178.03C185.072 178.491 184.697 178.874 184.403 179.168C184.136 179.437 183.989 179.583 183.976 179.571C183.962 179.564 184.096 179.398 184.343 179.117C184.691 178.716 185.048 178.322 185.412 177.935C186.341 176.963 187.678 175.614 189.502 174.553C191.327 173.498 193.298 173.114 194.688 173.211C195.383 173.249 195.937 173.37 196.305 173.492C196.492 173.543 196.626 173.607 196.72 173.645C196.813 173.683 196.86 173.709 196.86 173.716Z" fill="#EB996E"/>
<path d="M151.251 174.834H156.19C156.19 174.834 167.336 170.98 169.628 171.35C171.693 171.683 179.251 176.484 180.735 177.436C180.902 177.545 181.022 177.692 181.095 177.871C181.241 178.247 181.228 178.662 181.06 179.029C180.892 179.397 180.581 179.687 180.193 179.84L180.04 179.903L180.107 180.121C180.193 180.389 180.234 180.69 180.22 180.984C180.167 182 178.737 182.307 178.195 181.431L178.483 181.917C178.596 182.115 178.657 182.339 178.643 182.563L178.616 183.004C178.602 183.243 178.513 183.472 178.36 183.661C178.207 183.85 177.999 183.991 177.761 184.065C177.535 184.137 177.292 184.144 177.062 184.086C176.832 184.028 176.624 183.908 176.465 183.739C175.509 182.729 173.438 180.709 172.034 180.485C170.791 180.287 168.713 180.261 167.457 180.268C167.145 180.268 166.841 180.359 166.585 180.528C166.329 180.697 166.132 180.936 166.02 181.214C166.848 181.271 172.642 184.161 174.694 185.197C175.329 185.516 175.803 186.091 175.883 186.775C175.957 187.389 175.636 188.035 174.366 187.747C171.64 187.14 166.742 184.985 166.742 184.985C166.742 184.985 164.215 184.295 162.578 185.401C160.273 186.954 159.217 187.523 157.239 186.897C155.261 186.27 153.804 185.369 153.804 185.369L149.908 184.998C149.895 184.998 146.213 176.189 151.251 174.834Z" fill="#885043"/>
<path d="M165.973 176.637C165.98 176.675 166.762 176.439 168.065 176.362C169.361 176.279 171.199 176.42 173.03 177.167C174.861 177.915 176.244 179.085 177.073 180.038C177.915 180.99 178.276 181.7 178.309 181.674C178.322 181.668 178.242 181.489 178.062 181.182C177.804 180.75 177.511 180.337 177.186 179.948C176.371 178.957 174.981 177.743 173.11 176.982C171.239 176.222 169.361 176.094 168.051 176.222C167.533 176.264 167.019 176.348 166.515 176.471C166.16 176.56 165.966 176.624 165.973 176.637ZM167.149 174.048C167.163 174.099 167.958 173.722 169.328 173.683C170.691 173.626 172.609 174.022 174.4 175.058C176.19 176.1 177.534 177.417 178.482 178.363C178.937 178.823 179.311 179.206 179.605 179.501C179.872 179.769 180.02 179.916 180.033 179.903C180.046 179.897 179.913 179.731 179.665 179.45C179.318 179.048 178.961 178.654 178.596 178.267C177.667 177.295 176.331 175.946 174.507 174.885C172.682 173.83 170.711 173.447 169.321 173.543C168.626 173.581 168.071 173.702 167.704 173.824C167.517 173.875 167.383 173.939 167.29 173.978C167.196 174.016 167.149 174.042 167.149 174.048Z" fill="#EB996E"/>
<path d="M157.934 187.856H209.784C210.493 187.856 211.175 187.595 211.687 187.125C212.199 186.656 212.501 186.015 212.53 185.337L214.087 151.201C214.154 149.705 212.905 148.453 211.341 148.453H156.477C154.913 148.453 153.664 149.699 153.724 151.195L155.181 185.337C155.241 186.743 156.457 187.856 157.934 187.856Z" fill="#31446C"/>
<path d="M178.67 168.786C178.669 169.452 178.806 170.112 179.072 170.727C179.338 171.343 179.729 171.902 180.221 172.374C180.714 172.845 181.298 173.218 181.942 173.473C182.585 173.728 183.275 173.859 183.972 173.858C184.668 173.859 185.358 173.728 186.002 173.473C186.645 173.218 187.23 172.845 187.722 172.374C188.215 171.903 188.606 171.343 188.872 170.728C189.138 170.112 189.275 169.452 189.274 168.786C189.275 168.12 189.138 167.46 188.872 166.844C188.605 166.229 188.215 165.669 187.722 165.198C187.23 164.727 186.645 164.353 186.001 164.099C185.358 163.844 184.668 163.713 183.972 163.714C181.04 163.714 178.67 165.993 178.67 168.786Z" fill="white"/>
<path d="M178.87 96.6104H174.193V115.788H178.87V96.6104Z" fill="#885043"/>
<path d="M177.034 79.4751C177.877 80.5154 179.364 80.7446 180.588 80.9507C182.234 81.2269 183.049 81.8028 183.903 83.3489C184.444 84.3362 184.985 85.4179 185.954 85.9528C186.741 86.3897 186.712 85.276 186.837 84.4139C186.849 84.3375 186.865 84.2618 186.885 84.1871C187.076 83.4988 187.842 83.616 188.067 84.2951C188.272 84.9065 188.71 85.4239 189.269 85.7117C189.36 85.7587 189.457 85.7998 189.553 85.7822C189.684 85.7647 189.787 85.6471 189.872 85.5415C190.051 85.3199 190.229 85.0381 190.413 84.7403C191.017 83.761 192.16 84.111 192.834 85.0476C193.255 85.6296 193.757 86.229 194.446 86.3641C194.668 86.4112 194.947 86.3761 195.05 86.1704C195.181 85.9173 194.976 85.6646 195.01 85.406C195.038 85.1652 195.147 85.0592 195.266 84.8535C195.735 84.0552 196.81 84.0265 197.47 84.6897C197.93 85.1507 198.409 85.5937 198.906 86.0174C199.116 86.194 199.424 86.3701 199.635 86.194C199.749 86.0999 199.777 85.9409 199.8 85.7882C199.92 85.0417 200.033 84.2951 200.153 83.5486C200.221 83.1313 200.455 82.5844 200.854 82.6905C201.047 82.7435 201.161 82.9372 201.269 83.1137C201.4 83.3369 203.741 85.8823 203.787 85.6882C204.151 84.2421 204.897 82.9256 205.262 81.4796C207.62 72.1744 197.157 64.6915 189.166 64.6504C187.389 64.6388 185.766 64.6664 184.04 65.0601C182.2 65.4834 180.258 66.1554 178.589 67.1017C176.248 68.4241 174.477 70.8284 174.933 73.6969" fill="#31446C"/>
<path d="M181.237 76.3297C182.413 77.5649 182.724 79.3023 182.833 80.9436C182.995 83.4188 182.776 85.9904 181.542 88.1878C181.191 88.8135 180.931 91.9089 180.39 91.7379C180.217 91.6845 180.245 89.2839 179.79 87.9901C179.087 85.9852 175.848 85.2208 174.389 86.4878C172.061 88.5035 173.427 90.9519 174.199 92.4757C174.66 93.3952 175.392 94.4271 175.519 95.4001C175.675 96.646 175.721 101.185 174.845 102.244C174.113 103.131 173.335 98.8434 172.672 97.9984C167.767 91.706 163.063 75.6828 171.438 72.2076C172.712 71.6783 176.643 71.4057 177.836 72.0793" fill="#31446C"/>
<path fill-rule="evenodd" clip-rule="evenodd" d="M235.651 80.4305H237.211C237.588 80.4305 237.892 80.1371 237.892 79.7792V78.2873C237.892 77.9266 237.585 77.636 237.211 77.636H235.651C235.471 77.6367 235.298 77.7055 235.171 77.8275C235.043 77.9495 234.971 78.1148 234.97 78.2873V79.7792C234.97 79.8648 234.988 79.9496 235.022 80.0287C235.056 80.1078 235.106 80.1797 235.169 80.2402C235.233 80.3007 235.308 80.3487 235.39 80.3813C235.473 80.414 235.562 80.4307 235.651 80.4305ZM241.059 80.4305H242.619C242.799 80.4298 242.972 80.361 243.099 80.239C243.227 80.117 243.299 79.9517 243.3 79.7792V78.2873C243.3 77.9266 242.993 77.636 242.619 77.636H241.059C240.879 77.6367 240.706 77.7055 240.578 77.8275C240.451 77.9495 240.379 78.1148 240.378 78.2873V79.7792C240.379 79.9517 240.451 80.117 240.578 80.239C240.706 80.361 240.879 80.4298 241.059 80.4305ZM246.47 80.4305H248.03C248.21 80.4298 248.383 80.361 248.511 80.239C248.638 80.117 248.71 79.9517 248.711 79.7792V78.2873C248.711 77.9266 248.404 77.636 248.03 77.636H246.47C246.29 77.6367 246.117 77.7055 245.99 77.8275C245.862 77.9495 245.79 78.1148 245.79 78.2873V79.7792C245.789 79.8648 245.807 79.9496 245.841 80.0287C245.875 80.1078 245.925 80.1797 245.989 80.2402C246.052 80.3007 246.127 80.3487 246.21 80.3813C246.292 80.414 246.381 80.4307 246.47 80.4305ZM251.878 80.4305H253.438C253.618 80.4298 253.791 80.361 253.919 80.239C254.046 80.117 254.118 79.9517 254.119 79.7792V78.2873C254.119 77.9266 253.812 77.636 253.438 77.636H251.878C251.501 77.636 251.194 77.9294 251.194 78.2873V79.7792C251.196 79.9519 251.269 80.1169 251.397 80.2388C251.525 80.3606 251.698 80.4294 251.878 80.4305ZM257.287 80.4305H258.846C259.223 80.4305 259.53 80.1371 259.53 79.7792V78.2873C259.53 77.9266 259.223 77.636 258.846 77.636H257.287C257.106 77.6367 256.934 77.7055 256.806 77.8275C256.678 77.9495 256.607 78.1148 256.606 78.2873V79.7792C256.607 79.9517 256.678 80.117 256.806 80.239C256.934 80.361 257.106 80.4298 257.287 80.4305ZM241.258 74.7898H242.817C243.191 74.7898 243.498 74.496 243.498 74.1385V72.6431C243.497 72.4706 243.425 72.3054 243.298 72.1835C243.17 72.0616 242.997 71.9928 242.817 71.9922H241.258C240.88 71.9922 240.577 72.2855 240.577 72.6431V74.1353C240.576 74.2212 240.593 74.3062 240.627 74.3857C240.661 74.4651 240.711 74.5373 240.775 74.5982C240.838 74.659 240.913 74.7072 240.996 74.7401C241.079 74.773 241.168 74.7899 241.258 74.7898ZM246.665 74.7898H248.225C248.405 74.7892 248.578 74.7204 248.706 74.5984C248.833 74.4764 248.905 74.3111 248.906 74.1385V72.6431C248.905 72.4706 248.833 72.3054 248.706 72.1835C248.578 72.0616 248.405 71.9928 248.225 71.9922H246.665C246.485 71.9928 246.312 72.0616 246.185 72.1835C246.057 72.3054 245.985 72.4706 245.985 72.6431V74.1353C245.984 74.2212 246.001 74.3062 246.035 74.3857C246.069 74.4651 246.119 74.5373 246.183 74.5982C246.246 74.659 246.321 74.7072 246.404 74.7401C246.487 74.773 246.576 74.7899 246.665 74.7898ZM252.073 74.7898H253.633C254.01 74.7898 254.317 74.496 254.317 74.1385V72.6431C254.317 72.2855 254.01 71.9922 253.633 71.9922H252.073C251.893 71.9928 251.72 72.0616 251.593 72.1835C251.465 72.3054 251.393 72.4706 251.393 72.6431V74.1353C251.393 74.4961 251.7 74.7898 252.073 74.7898ZM246.47 86.4908H248.03C248.21 86.4902 248.383 86.4214 248.511 86.2994C248.638 86.1774 248.71 86.0121 248.711 85.8396V84.3473C248.711 83.9866 248.404 83.696 248.03 83.696H246.47C246.29 83.6966 246.117 83.7655 245.99 83.8875C245.862 84.0095 245.79 84.1748 245.79 84.3473V85.8396C245.789 85.9252 245.807 86.0099 245.841 86.089C245.875 86.1682 245.925 86.24 245.989 86.3006C246.052 86.3611 246.127 86.409 246.21 86.4417C246.292 86.4744 246.381 86.4911 246.47 86.4908ZM251.878 86.4908H253.438C253.618 86.4902 253.791 86.4214 253.919 86.2994C254.046 86.1774 254.118 86.0121 254.119 85.8396V84.3473C254.119 83.9866 253.812 83.696 253.438 83.696H251.878C251.501 83.696 251.194 83.9898 251.194 84.3473V85.8396C251.196 86.0123 251.269 86.1773 251.397 86.2991C251.525 86.421 251.698 86.4898 251.878 86.4908Z" fill="#E1E4E5"/>
<path d="M261.504 115.525C261.6 112.658 262.28 109.727 263.477 106.988C279.071 112.22 274.502 106.075 265.067 103.993C267.605 99.9298 271.456 96.6336 276.494 95.1086C282.596 93.264 289.828 97.4646 294.492 103.665C287.155 106.577 288.716 115.845 296.322 106.413C297.845 109.024 298.889 111.837 299.243 114.64C300.134 121.543 296.81 128.318 286.053 131.331C268.717 136.216 261.121 126.327 261.504 115.525ZM272.404 112.001C267.826 112.129 274.234 117.032 277.663 114.658C279.808 113.161 276.992 111.873 272.404 112.001Z" fill="#A855F7"/>
<path d="M290.239 186.034C290.996 130.144 276.504 95.1177 276.504 95.1177" stroke="#A855F7" stroke-width="2.5" stroke-miterlimit="10"/>
<path d="M294.116 119.159C296.511 128.829 299.183 123.441 296.29 117.086C300.993 113.233 307.89 111.225 315.543 113.37C321.721 115.105 324.652 119.287 325.131 123.999C315.237 123.542 312.823 129.587 325.179 126.235C324.595 136.773 312.957 148.415 298.455 141.247C287.813 135.987 288.11 125.879 294.116 119.159ZM308.455 132.052C313.704 133.394 313.963 129.696 309.375 129.185C306.108 128.82 303.206 130.71 308.455 132.052Z" fill="#A855F7"/>
<path d="M294.76 168.293C292.356 133.203 313.352 115.535 313.352 115.535" stroke="#A855F7" stroke-width="2.5" stroke-miterlimit="10"/>
<path d="M252.803 139.809C247.707 133.453 247.582 123.053 251.5 119.949C255.207 117.009 259.938 116.653 264.498 117.858C263.339 124.469 268.99 127.372 267.64 118.954C278.262 123.492 286.203 135.791 274.383 141.872C265.379 146.493 258.942 145.351 254.757 141.836C270.005 140.904 262.199 136.969 252.803 139.809ZM256.787 129.117C252.343 130.367 252.965 131.7 257.889 132.056C262.803 132.413 262.525 127.519 256.787 129.117Z" fill="#A855F7"/>
<path d="M281.772 167.973C283.237 133.202 254.54 120.492 254.54 120.492" stroke="#A855F7" stroke-width="2.5" stroke-miterlimit="10"/>
<path d="M310.833 164.151H265.566L271.801 180.993C273.397 185.303 277.68 188.196 282.481 188.196H293.927C298.729 188.196 303.011 185.312 304.607 180.994L305.393 181.259L304.607 180.994L310.833 164.151Z" fill="white" stroke="#E1E4E5" stroke-width="4"/>
<path d="M317.225 163.561V160.964H259.736V163.561H317.225Z" fill="#E1E4E5" stroke="#E1E4E5" stroke-width="4"/>
<path d="M87.3408 164.492L89.2471 187.174H102.438L104.349 164.492H87.3408Z" fill="#A855F7"/>
<path d="M86.25 162.447H105.642V165.753H86.25V162.447ZM87.5787 162.447H104.313L103.336 158.73H88.56L87.5787 162.447Z" fill="#31446C"/>
<path d="M92.0675 176.044C92.0674 176.531 92.1676 177.014 92.3625 177.464C92.5574 177.914 92.843 178.323 93.2032 178.668C93.5634 179.012 93.9909 179.285 94.4615 179.472C94.9321 179.658 95.4365 179.754 95.9458 179.754C96.4552 179.754 96.9596 179.658 97.4301 179.472C97.9007 179.285 98.3283 179.012 98.6885 178.668C99.0487 178.323 99.3343 177.914 99.5292 177.464C99.7241 177.014 99.8243 176.531 99.8242 176.044C99.8244 175.557 99.7241 175.074 99.5293 174.624C99.3345 174.174 99.0488 173.765 98.6886 173.42C98.3284 173.076 97.9008 172.802 97.4302 172.616C96.9596 172.43 96.4552 172.334 95.9458 172.334C95.4365 172.334 94.9321 172.43 94.4615 172.616C93.9909 172.803 93.5634 173.076 93.2032 173.42C92.843 173.765 92.5574 174.174 92.3625 174.624C92.1676 175.074 92.0674 175.557 92.0675 176.044Z" fill="white"/>
<path fill-rule="evenodd" clip-rule="evenodd" d="M126.866 90.9613V72.0547C126.866 70.0961 125.211 68.5098 123.167 68.5098H100.979C98.9358 68.5098 97.2808 70.0961 97.2808 72.0547V90.9613C97.2806 91.5931 97.4569 92.2135 97.7915 92.7583C98.126 93.303 98.6067 93.7524 99.1837 94.0598L110.278 99.9671C110.827 100.26 111.445 100.414 112.074 100.414C112.703 100.414 113.321 100.26 113.87 99.9671L124.965 94.0598C125.541 93.7518 126.021 93.3023 126.356 92.7576C126.69 92.2129 126.866 91.5928 126.866 90.9613Z" fill="#E1E4E5"/>
<path d="M118.223 89.4966H105.923M118.223 84.1433H105.923H118.223ZM118.223 78.6313H105.923H118.223Z" stroke="white" stroke-width="2.677" stroke-linecap="round" stroke-linejoin="round"/>
<path d="M51.0713 187.153H316.872C317.909 187.153 318.75 187.957 318.75 188.949C318.75 189.941 317.909 190.745 316.872 190.745H51.0713C50.0341 190.745 49.1934 189.941 49.1934 188.949C49.1934 187.957 50.0341 187.153 51.0713 187.153Z" fill="#E1E4E5"/>
<path d="M111.268 142.373L118.863 149.638C119.14 149.903 119.14 150.332 118.863 150.596C118.587 150.861 118.138 150.861 117.862 150.596L110.267 143.331C109.99 143.066 109.99 142.637 110.267 142.373C110.543 142.108 110.992 142.108 111.268 142.373Z" fill="#E1E4E5"/>
<path d="M112.012 147.574L114.202 149.669C114.479 149.934 114.479 150.363 114.202 150.627C113.926 150.892 113.477 150.892 113.201 150.627L111.01 148.532C110.734 148.267 110.734 147.839 111.01 147.574C111.287 147.309 111.735 147.31 112.012 147.574Z" fill="#E1E4E5"/>
</g>
<defs>
<linearGradient id="paint0_linear_7766_12690" x1="177.215" y1="247.311" x2="179.48" y2="-77.4963" gradientUnits="userSpaceOnUse">
<stop stop-color="white"/>
<stop offset="1" stop-color="#EEEEEE"/>
</linearGradient>
<clipPath id="clip0_7766_12690">
<rect width="375" height="239.147" fill="white"/>
</clipPath>
</defs>
</svg>
