<svg width="375" height="250" viewBox="0 0 375 250" fill="none" xmlns="http://www.w3.org/2000/svg">
<path opacity="0.76" fill-rule="evenodd" clip-rule="evenodd" d="M290 88.5415C290 51.6073 260.059 21.6665 223.125 21.6665C186.191 21.6665 156.25 51.6073 156.25 88.5415C156.25 125.476 186.191 155.417 223.125 155.417C260.059 155.417 290 125.476 290 88.5415ZM181.25 88.5415C181.25 65.4144 199.998 46.6665 223.125 46.6665C246.252 46.6665 265 65.4144 265 88.5415C265 111.669 246.252 130.417 223.125 130.417C199.998 130.417 181.25 111.669 181.25 88.5415Z" fill="url(#paint0_linear_7766_12755)"/>
<path opacity="0.76" fill-rule="evenodd" clip-rule="evenodd" d="M243.333 139.375C243.333 128.904 234.845 120.417 224.375 120.417C213.905 120.417 205.417 128.904 205.417 139.375C205.417 149.845 213.905 158.333 224.375 158.333C234.845 158.333 243.333 149.845 243.333 139.375ZM217.917 139.375C217.917 135.808 220.808 132.917 224.375 132.917C227.942 132.917 230.833 135.808 230.833 139.375C230.833 142.942 227.942 145.833 224.375 145.833C220.808 145.833 217.917 142.942 217.917 139.375Z" fill="url(#paint1_linear_7766_12755)"/>
<path d="M81.0417 92.9165C87.6 92.9165 92.9167 87.5999 92.9167 81.0415C92.9167 74.4831 87.6 69.1665 81.0417 69.1665C74.4833 69.1665 69.1667 74.4831 69.1667 81.0415C69.1667 87.5999 74.4833 92.9165 81.0417 92.9165Z" fill="url(#paint2_linear_7766_12755)"/>
<path d="M120 60.0002C127.364 60.0002 133.333 54.0306 133.333 46.6668C133.333 39.303 127.364 33.3335 120 33.3335C112.636 33.3335 106.667 39.303 106.667 46.6668C106.667 54.0306 112.636 60.0002 120 60.0002Z" fill="url(#paint3_linear_7766_12755)"/>
<g filter="url(#filter0_f_7766_12755)">
<path d="M277.083 191.25C284.447 191.25 290.417 185.281 290.417 177.917C290.417 170.553 284.447 164.583 277.083 164.583C269.72 164.583 263.75 170.553 263.75 177.917C263.75 185.281 269.72 191.25 277.083 191.25Z" fill="url(#paint4_linear_7766_12755)"/>
</g>
<path d="M294.525 130.929H148.809C144.493 130.929 141.25 128.014 141.25 124.71V47.9823C141.25 44.6777 144.493 41.7627 148.809 41.7627H294.525C298.84 41.7627 302.083 44.6777 302.083 47.9823V124.71C302.083 128.014 298.84 130.929 294.525 130.929Z" fill="white" stroke="#E1E4E5" stroke-width="4"/>
<path fill-rule="evenodd" clip-rule="evenodd" d="M154.412 67.5892V96.1701C154.412 97.7217 155.655 98.978 157.188 98.978H174.013L181.357 88.5097C181.707 88.0105 182.583 88.0105 182.933 88.5097L185.504 92.1755L185.524 92.2038L185.541 92.1788L191.055 84.1722C191.437 83.618 192.393 83.618 192.774 84.1722L200.077 94.7772V67.5892C200.077 66.038 198.831 64.7817 197.3 64.7817H157.188C155.655 64.7817 154.412 66.038 154.412 67.5892Z" fill="#A855F7"/>
<path d="M167.29 84.2477C164.612 84.2477 162.44 82.076 162.44 79.3973C162.44 76.7185 164.612 74.5469 167.29 74.5469C169.969 74.5469 172.14 76.7185 172.14 79.3973C172.14 82.076 169.969 84.2477 167.29 84.2477Z" fill="white"/>
<path d="M302.083 51.4436H141.25V49.2253C141.25 45.0515 144.635 41.6665 148.809 41.6665H294.525C298.698 41.6665 302.083 45.0515 302.083 49.2253V51.4436Z" fill="white" stroke="#E1E4E5" stroke-width="4"/>
<path d="M148.824 48.7256C149.302 48.7256 149.761 48.5357 150.099 48.1977C150.437 47.8596 150.627 47.4012 150.627 46.9231C150.627 46.4451 150.437 45.9866 150.099 45.6485C149.761 45.3105 149.302 45.1206 148.824 45.1206C148.346 45.1206 147.888 45.3105 147.55 45.6485C147.212 45.9866 147.022 46.4451 147.022 46.9231C147.022 47.4012 147.212 47.8596 147.55 48.1977C147.888 48.5357 148.346 48.7256 148.824 48.7256ZM156.334 48.7256C156.812 48.7256 157.27 48.5357 157.608 48.1978C157.946 47.8598 158.136 47.4015 158.136 46.9235C158.136 46.4456 157.946 45.9872 157.608 45.6493C157.27 45.3113 156.812 45.1214 156.334 45.1214C155.856 45.1214 155.397 45.3113 155.059 45.6493C154.722 45.9872 154.532 46.4456 154.532 46.9235C154.532 47.4015 154.722 47.8598 155.059 48.1978C155.397 48.5357 155.856 48.7256 156.334 48.7256ZM163.543 48.7256C164.021 48.7256 164.479 48.5357 164.817 48.1977C165.156 47.8596 165.345 47.4012 165.345 46.9231C165.345 46.4451 165.156 45.9866 164.817 45.6485C164.479 45.3105 164.021 45.1206 163.543 45.1206C163.065 45.1206 162.606 45.3105 162.268 45.6485C161.93 45.9866 161.74 46.4451 161.74 46.9231C161.74 47.4012 161.93 47.8596 162.268 48.1977C162.606 48.5357 163.065 48.7256 163.543 48.7256Z" fill="#E1E4E5"/>
<path d="M286.128 64.7817H210.24C208.608 64.7817 207.285 66.1046 207.285 67.7363C207.285 69.3681 208.608 70.6909 210.24 70.6909H286.128C287.76 70.6909 289.083 69.3681 289.083 67.7363C289.083 66.1046 287.76 64.7817 286.128 64.7817Z" fill="#E1E4E5"/>
<path d="M286.128 78.4668H210.24C208.608 78.4668 207.285 79.7896 207.285 81.4214C207.285 83.0532 208.608 84.376 210.24 84.376H286.128C287.76 84.376 289.083 83.0532 289.083 81.4214C289.083 79.7896 287.76 78.4668 286.128 78.4668Z" fill="#E1E4E5"/>
<path d="M281.667 92.0835H210C208.389 92.0835 207.083 93.3893 207.083 95.0002C207.083 96.611 208.389 97.9168 210 97.9168H281.667C283.278 97.9168 284.583 96.611 284.583 95.0002C284.583 93.3893 283.278 92.0835 281.667 92.0835Z" fill="#E1E4E5"/>
<path d="M286.128 105.836H210.24C208.608 105.836 207.285 107.159 207.285 108.791C207.285 110.422 208.608 111.745 210.24 111.745H286.128C287.76 111.745 289.083 110.422 289.083 108.791C289.083 107.159 287.76 105.836 286.128 105.836Z" fill="#E1E4E5"/>
<path fill-rule="evenodd" clip-rule="evenodd" d="M119.196 172.952C119.441 172.918 119.691 172.932 119.93 172.995C120.169 173.058 120.394 173.167 120.59 173.317C120.787 173.468 120.952 173.655 121.075 173.87C121.199 174.084 121.278 174.321 121.309 174.567L127.865 226.305C127.926 226.788 127.794 227.275 127.496 227.659C127.198 228.044 126.76 228.295 126.278 228.356C125.795 228.417 125.308 228.285 124.924 227.987C124.539 227.689 124.289 227.251 124.227 226.769L117.605 175.039C117.542 174.551 117.674 174.059 117.972 173.669C118.27 173.278 118.71 173.021 119.196 172.952Z" fill="white" stroke="#E1E4E5" stroke-width="4" stroke-linecap="round" stroke-linejoin="round"/>
<path fill-rule="evenodd" clip-rule="evenodd" d="M119.946 172.952C119.701 172.918 119.451 172.932 119.212 172.995C118.973 173.058 118.748 173.167 118.552 173.318C118.355 173.468 118.19 173.655 118.067 173.87C117.943 174.084 117.864 174.321 117.833 174.567L111.277 226.305C111.215 226.788 111.348 227.275 111.646 227.66C111.943 228.044 112.382 228.295 112.864 228.356C113.347 228.418 113.834 228.285 114.218 227.987C114.603 227.689 114.854 227.251 114.915 226.769L121.538 175.039C121.6 174.551 121.468 174.059 121.17 173.669C120.872 173.278 120.432 173.021 119.946 172.952ZM139.738 172.952C139.983 172.918 140.232 172.932 140.471 172.995C140.711 173.058 140.935 173.167 141.132 173.318C141.328 173.468 141.493 173.655 141.617 173.87C141.74 174.084 141.82 174.321 141.851 174.567L148.407 226.305C148.468 226.788 148.335 227.275 148.038 227.66C147.74 228.044 147.302 228.295 146.819 228.356C146.337 228.418 145.85 228.285 145.465 227.987C145.08 227.689 144.83 227.251 144.768 226.769L138.146 175.039C138.083 174.551 138.216 174.059 138.514 173.669C138.811 173.278 139.251 173.021 139.738 172.952ZM98.4263 172.952C98.1812 172.918 97.9318 172.932 97.6924 172.995C97.4531 173.058 97.2285 173.167 97.0319 173.317C96.8353 173.468 96.6704 173.655 96.547 173.87C96.4236 174.084 96.344 174.321 96.3129 174.567L89.7571 226.305C89.6956 226.788 89.8284 227.275 90.126 227.659C90.4237 228.044 90.862 228.295 91.3444 228.356C91.5832 228.386 91.8258 228.369 92.0581 228.306C92.2904 228.243 92.508 228.134 92.6984 227.987C93.083 227.689 93.3336 227.251 93.395 226.769L100.018 175.039C100.08 174.551 99.9482 174.059 99.6503 173.669C99.3523 173.278 98.9126 173.021 98.4263 172.952Z" fill="white" stroke="#E1E4E5" stroke-width="4" stroke-linecap="round" stroke-linejoin="round"/>
<path fill-rule="evenodd" clip-rule="evenodd" d="M144.319 181.445C147.533 181.445 150.139 178.839 150.139 175.625C150.139 172.411 147.533 169.805 144.319 169.805H131.634C122.087 169.805 114.106 162.541 113.211 153.035L111.11 130.721C110.424 123.433 104.306 117.864 96.9863 117.864C88.7225 117.864 82.2079 124.899 82.8417 133.138L85.0779 162.21C85.9129 173.064 94.9637 181.445 105.85 181.445H144.319Z" fill="white" stroke="#E1E4E5" stroke-width="4" stroke-linecap="round" stroke-linejoin="round"/>
<path fill-rule="evenodd" clip-rule="evenodd" d="M150.139 175.485C150.139 175.51 150.129 175.533 150.112 175.55C150.095 175.567 150.072 175.576 150.048 175.576H111.715C100.83 175.576 91.78 167.197 90.9429 156.345L88.7112 127.413C88.6602 126.754 88.6549 126.092 88.6954 125.432C88.9429 121.415 92.2579 118.12 96.2754 117.888C96.5504 117.872 96.8279 117.864 97.1071 117.864C104.408 117.864 110.51 123.417 111.196 130.686L113.297 152.931C114.192 162.413 122.153 169.657 131.677 169.657H144.334C147.54 169.657 150.139 172.256 150.139 175.462V175.485Z" fill="white"/>
<path d="M90.9429 156.345L90.1121 156.409L90.9429 156.345ZM88.7112 127.413L89.5421 127.349L88.7112 127.413ZM111.196 130.685L112.026 130.607L111.196 130.685ZM113.297 152.931L114.127 152.853L113.297 152.931ZM96.2754 117.888L96.3233 118.72L96.2754 117.888ZM150.139 175.485L150.972 175.489L150.139 175.485ZM111.715 174.743H150.048V176.41H111.715V174.743ZM91.7737 156.281C92.5775 166.699 101.265 174.743 111.715 174.743V176.41C100.395 176.41 90.9829 167.695 90.1121 156.409L91.7737 156.281ZM89.5421 127.349L91.7737 156.281L90.1121 156.409L87.8804 127.477L89.5421 127.349ZM89.5271 125.483C89.489 126.105 89.494 126.728 89.5421 127.349L87.8804 127.477C87.8264 126.779 87.8208 126.079 87.8637 125.38L89.5271 125.483ZM97.1071 118.697C96.8442 118.697 96.5825 118.705 96.3233 118.72L96.2275 117.056C96.5183 117.039 96.8121 117.031 97.1071 117.031V118.697ZM110.367 130.764C109.721 123.924 103.978 118.697 97.1071 118.697V117.031C104.837 117.031 111.299 122.911 112.026 130.607L110.367 130.764ZM112.467 153.01L110.367 130.764L112.026 130.607L114.127 152.853L112.467 153.01ZM131.677 170.49C121.723 170.49 113.403 162.919 112.467 153.01L114.127 152.853C114.982 161.906 122.583 168.824 131.677 168.824V170.49ZM144.334 170.49H131.677V168.824H144.334V170.49ZM149.305 175.462C149.305 172.716 147.08 170.49 144.334 170.49V168.824C148 168.824 150.972 171.796 150.972 175.462H149.305ZM149.305 175.482V175.462H150.972V175.489L149.305 175.482ZM87.8637 125.38C88.1371 120.942 91.7896 117.312 96.2275 117.056L96.3233 118.72C92.7262 118.927 89.7487 121.888 89.5271 125.483L87.8637 125.38ZM150.048 174.743C149.639 174.743 149.307 175.073 149.305 175.482L150.972 175.489C150.971 175.733 150.873 175.967 150.7 176.14C150.527 176.313 150.292 176.41 150.048 176.41V174.743Z" fill="#E1E4E5"/>
<path d="M281.769 148.921C282.163 148.921 282.48 148.604 282.487 148.215C282.624 140.715 276.613 137.467 276.356 137.329C276.186 137.241 275.988 137.223 275.805 137.28C275.623 137.337 275.47 137.465 275.381 137.634C275.293 137.804 275.275 138.001 275.331 138.183C275.386 138.366 275.512 138.519 275.68 138.609C275.692 138.615 277.086 139.363 278.431 140.924C280.214 142.987 281.093 145.434 281.039 148.191C281.036 148.382 281.109 148.566 281.241 148.704C281.373 148.841 281.554 148.922 281.745 148.927C281.757 148.921 281.763 148.921 281.769 148.921ZM284.089 130.302C284.089 130.302 292.457 114.518 262.438 103.454C260.889 102.885 259.322 104.249 259.693 105.858C261.589 114.076 267.803 133.287 284.089 130.302Z" fill="#A855F7"/>
<path d="M292.325 147.491C292.361 147.491 292.397 147.491 292.427 147.485C292.521 147.472 292.611 147.439 292.692 147.391C292.774 147.342 292.845 147.278 292.902 147.202C292.958 147.126 292.999 147.039 293.023 146.947C293.046 146.855 293.051 146.76 293.037 146.666C290.955 132.306 280.255 125.631 279.047 124.913C278.706 124.71 278.258 124.817 278.055 125.158C277.956 125.322 277.927 125.517 277.973 125.702C278.019 125.888 278.136 126.047 278.3 126.145L278.317 126.151C278.826 126.45 281.493 128.101 284.364 131.319C288.324 135.769 290.764 140.996 291.613 146.863C291.667 147.234 291.972 147.491 292.325 147.491Z" fill="#A855F7"/>
<path d="M287.918 147.491H287.953C288.144 147.481 288.323 147.397 288.452 147.256C288.581 147.115 288.649 146.929 288.641 146.738C288.354 140.595 292.254 134.991 292.29 134.931C292.399 134.774 292.442 134.581 292.409 134.393C292.377 134.205 292.272 134.037 292.116 133.926C291.96 133.817 291.766 133.774 291.578 133.807C291.39 133.839 291.222 133.944 291.111 134.1C290.938 134.345 286.889 140.171 287.2 146.803C287.208 146.988 287.287 147.163 287.42 147.291C287.554 147.42 287.732 147.491 287.918 147.491ZM285.848 148.55H285.866C285.961 148.547 286.054 148.526 286.141 148.488C286.227 148.449 286.305 148.394 286.37 148.325C286.435 148.256 286.486 148.175 286.52 148.086C286.553 147.997 286.569 147.903 286.565 147.808L285.95 124.441C285.947 124.346 285.926 124.252 285.888 124.166C285.849 124.079 285.794 124.001 285.725 123.936C285.656 123.871 285.575 123.82 285.486 123.787C285.397 123.753 285.303 123.737 285.208 123.741C285.113 123.743 285.02 123.764 284.933 123.803C284.847 123.841 284.769 123.897 284.703 123.966C284.638 124.035 284.588 124.116 284.554 124.204C284.521 124.293 284.505 124.388 284.508 124.482L285.124 147.844C285.13 148.033 285.208 148.212 285.343 148.343C285.478 148.475 285.659 148.549 285.848 148.55Z" fill="#A855F7"/>
<path d="M290.86 135.332C290.86 135.332 307.888 140.745 313.408 109.225C313.695 107.599 312.068 106.307 310.549 106.959C302.804 110.29 285.01 119.841 290.86 135.332ZM279.831 141.397C279.831 141.397 264.526 150.614 251.84 121.235C251.188 119.722 252.468 118.083 254.095 118.364C262.403 119.812 281.924 124.973 279.831 141.397Z" fill="#A855F7"/>
<path d="M282.636 132.521C283.82 134.973 287.397 134.704 288.21 132.102C291.84 120.511 297.923 95.9414 285.327 93.1181C271.2 89.9543 275.931 118.657 282.636 132.521Z" fill="#A855F7"/>
<path d="M285.543 134.094H285.561C285.665 134.09 285.762 134.044 285.833 133.968C285.904 133.892 285.941 133.791 285.938 133.687L284.61 100.834C284.608 100.782 284.596 100.731 284.575 100.685C284.554 100.638 284.523 100.595 284.485 100.56C284.447 100.525 284.403 100.498 284.355 100.48C284.306 100.463 284.255 100.455 284.203 100.457C284.1 100.461 284.002 100.506 283.931 100.583C283.86 100.659 283.823 100.76 283.826 100.864L285.148 133.717C285.154 133.927 285.327 134.094 285.543 134.094ZM279.407 141.444C279.465 141.445 279.523 141.432 279.575 141.407C279.628 141.382 279.675 141.346 279.712 141.301C279.849 141.134 279.825 140.882 279.658 140.751L261.464 125.858C261.296 125.721 261.045 125.744 260.913 125.912C260.881 125.952 260.856 125.997 260.841 126.046C260.826 126.096 260.821 126.147 260.826 126.198C260.831 126.249 260.846 126.299 260.87 126.344C260.894 126.39 260.927 126.43 260.967 126.462L279.161 141.355C279.23 141.412 279.317 141.444 279.407 141.444Z" fill="#31446C"/>
<path d="M271.647 145.948C269.199 145.948 267.377 148.209 267.897 150.601L268.231 152.114L268.931 155.326L269.26 156.845L269.375 157.37C271.03 164.938 277.731 170.332 285.477 170.332C293.224 170.332 299.926 164.938 301.58 157.37L301.695 156.845L302.024 155.326L302.724 152.114L303.052 150.601C303.575 148.21 301.754 145.948 299.306 145.948H271.647ZM306.018 204.983H264.11C264.046 204.984 263.983 204.971 263.924 204.947C263.865 204.923 263.812 204.887 263.767 204.842C263.722 204.797 263.686 204.744 263.662 204.685C263.637 204.626 263.625 204.563 263.625 204.499V202.071C263.625 201.802 263.841 201.586 264.11 201.586H306.024C306.293 201.586 306.509 201.802 306.509 202.071V204.499C306.507 204.628 306.455 204.751 306.363 204.842C306.271 204.932 306.147 204.983 306.018 204.983Z" fill="white" stroke="#E1E4E5" stroke-width="4" stroke-linecap="round" stroke-linejoin="round"/>
<path d="M275.316 171.131C277.315 171.131 278.741 173.069 278.147 174.977L261.895 227.369C261.768 227.774 261.49 228.115 261.12 228.322C260.749 228.529 260.313 228.586 259.902 228.481C259.49 228.376 259.135 228.118 258.908 227.759C258.682 227.4 258.601 226.967 258.684 226.551L268.823 176.072L269.11 174.645C269.309 173.654 269.845 172.763 270.627 172.122C271.409 171.481 272.389 171.131 273.4 171.131H275.316ZM311.631 226.551C311.716 226.968 311.637 227.402 311.41 227.763C311.184 228.123 310.827 228.383 310.415 228.488C310.002 228.593 309.565 228.536 309.194 228.328C308.822 228.119 308.545 227.776 308.42 227.369L291.671 173.392C291.323 172.27 292.162 171.131 293.337 171.131H299.272C299.982 171.131 300.595 171.631 300.738 172.328L311.631 226.551Z" fill="white" stroke="#E1E4E5" stroke-width="4" stroke-linecap="round" stroke-linejoin="round"/>
<path d="M265.783 170.533H304.711C305.359 170.533 305.881 171.235 305.881 172.105V178.53C305.881 179.4 305.359 180.103 304.711 180.103H265.783C265.135 180.103 264.613 179.4 264.613 178.53V172.105C264.613 171.235 265.135 170.533 265.783 170.533Z" fill="white" stroke="#E1E4E5" stroke-width="4" stroke-linecap="round" stroke-linejoin="round"/>
<path fill-rule="evenodd" clip-rule="evenodd" d="M154.137 208.555C154.137 208.555 150.895 215.103 153.553 217.166C156.214 219.23 163.245 223.098 163.245 223.098L144.618 221.927L148.759 207.646L154.137 208.555Z" fill="#F8AE9D"/>
<path fill-rule="evenodd" clip-rule="evenodd" d="M146.463 214.481C147.049 214.761 146.085 217.391 148.148 217.206C150.21 217.022 151.504 214.303 153.025 214.479C154.545 214.656 155.511 217.394 158.406 219.301C161.3 221.209 165.592 223.484 165.305 225.403C165.017 227.321 158.263 227.834 154.841 227.199C151.42 226.565 149.822 225.189 147.602 225.299C145.382 225.409 143.987 225.137 143.291 223.711C142.596 222.286 145.787 214.158 146.463 214.481ZM126.077 150.844C131.716 151.095 163.102 158.037 168.804 159.216C174.507 160.396 179.327 166.778 174.979 174.167C170.095 182.462 157.495 206.021 154.435 211.331C152.921 213.96 145.281 212.486 147.076 208.074C150.421 199.85 151.975 179.189 160.503 171.656C160.503 171.656 131.821 176.648 119.432 170.93C110.428 166.774 112.465 150.235 126.077 150.844Z" fill="#31446C"/>
<path fill-rule="evenodd" clip-rule="evenodd" d="M165.416 115.643C165.416 115.643 165.352 112.291 166.957 109.893C168.562 107.495 168.626 104.948 169.841 105.031C171.055 105.115 169.852 111.035 169.852 111.035C169.852 111.035 171.394 110.446 172.501 109.701C173.608 108.957 176.965 105.285 177.75 105.935C179.08 107.044 176.938 113.298 175.771 114.548C174.6 115.798 168.822 119.293 168.822 119.293L151.805 136.436L149.261 127.335L165.416 115.643Z" fill="#F8AE9D"/>
<path fill-rule="evenodd" clip-rule="evenodd" d="M131.379 114.13C134.002 120.214 138.805 131.391 140.785 134.725C143.267 138.901 147.18 140.741 151.761 137.643C152.72 136.995 155.473 134.727 155.473 134.727C155.065 130.758 153.583 127.441 151.026 124.774L149.29 126.21C149.29 126.21 144.368 113.59 140.407 106.28C136.977 99.955 127.386 104.88 131.379 114.13ZM120.042 90.5129V95.8966L116.088 92.7133C116.088 92.7133 114.873 87.5554 113.885 83.7246C113.265 81.3221 111.755 73.1916 117.834 73.5725C122.813 64.7946 137.316 70.2275 137.431 80.9516C137.57 93.85 137.457 98.8721 137.457 98.8721C129.256 99.3425 124.64 98.1571 120.042 90.5129Z" fill="#31446C"/>
<path fill-rule="evenodd" clip-rule="evenodd" d="M116.003 100.763C116.003 100.763 119.681 99.8999 119.808 93.8737C119.936 87.8479 119.846 85.7908 119.846 85.7908L127.948 85.6445C127.948 85.6445 128.035 92.3608 128.037 94.79C128.04 100.696 132.384 101.18 132.384 101.18C132.384 101.18 131.641 106.054 124.301 106.466C118.57 106.789 116.003 100.763 116.003 100.763Z" fill="#F8AE9D"/>
<path fill-rule="evenodd" clip-rule="evenodd" d="M117.958 82.7815C114.344 82.6415 114.933 87.9319 118.688 87.9248C118.688 87.9248 120.868 95.4398 128.438 95.4398C134.586 95.4398 134.986 86.6811 135.042 84.9336C135.102 83.0706 135.109 76.9498 135.109 76.9498L117.817 76.9419L117.958 82.7815Z" fill="#F8AE9D"/>
<path fill-rule="evenodd" clip-rule="evenodd" d="M117.678 82.7469C119.176 82.9935 118.994 83.9852 119.401 83.8985C121.469 83.4589 129.84 84.0389 130.917 79.436C132.258 82.3114 132.586 83.0185 135.539 83.7906V75.3639L116.862 73.5723C116.862 73.5723 117.152 82.6594 117.678 82.7469Z" fill="#31446C"/>
<path fill-rule="evenodd" clip-rule="evenodd" d="M116.825 100.147C121.44 102.974 126.776 104.01 131.743 100.94C139.848 116.923 141.868 135.993 139.919 157.069C128.099 161.749 118.165 160.829 109.708 155.48L116.825 100.147Z" fill="#A855F7"/>
<path fill-rule="evenodd" clip-rule="evenodd" d="M174.341 208.818C174.341 208.818 174.243 216.525 180.594 219.407C186.94 222.288 191.462 222.114 190.887 224.342C190.311 226.569 173.792 226.479 172.249 224.737C170.934 223.255 168.075 209.456 167.288 210.511L174.341 208.818Z" fill="#F8AE9D"/>
<path fill-rule="evenodd" clip-rule="evenodd" d="M169.729 219.702C170.702 219.002 171.52 223.041 174.164 221.917C176.807 220.795 174.723 217.083 176.387 216.398C178.05 215.713 181.263 219.394 185.53 220.289C189.796 221.183 193.26 221.966 194.245 223.626C195.093 225.054 194.245 225.51 194.245 225.51C194.245 225.51 190.137 227.561 187.585 228.013C183.877 228.668 173.161 229.106 171.987 227.91C171.266 227.176 169.242 220.053 169.729 219.702ZM108.409 148.461C108.409 148.461 100.21 165.775 111.732 171.72C122.873 177.47 156.229 170.669 156.229 170.669C156.229 170.669 155.633 175.468 156.229 179.748C157.785 190.926 165.189 209.549 166.755 211.889C168.921 215.125 175.52 212.685 175.644 209.99C175.768 207.296 170.67 172.883 169.895 166.321C169.123 159.758 166.688 158.804 159.575 157.011C157.941 156.598 138.618 151.796 136.848 151.936C121.638 153.139 108.409 148.461 108.409 148.461Z" fill="#31446C"/>
<path fill-rule="evenodd" clip-rule="evenodd" d="M117.026 100.16C124.67 125.2 129.254 160.699 105.382 154.523C118.063 131.175 100.823 120.666 104.731 108.599C106.067 104.473 116.927 99.8363 117.026 100.16ZM131.338 100.765C134.255 108.081 135.657 113.822 136.965 124.56C138.056 133.504 137.51 151.961 137.51 151.961L141.115 152.67C141.115 152.67 143.692 124.155 142.83 120.484C141.385 114.323 140.405 110.723 138.496 105.091C137.444 102 131.338 100.765 131.338 100.765Z" fill="#31446C"/>
<path fill-rule="evenodd" clip-rule="evenodd" d="M118.631 128.586C118.631 128.586 123.338 123.874 124.968 123.327C126.598 122.78 135.526 122.123 135.466 123.359C135.398 124.682 129.652 124.607 129.121 125.258C128.59 125.909 127.851 130.978 125.843 131.478C123.838 131.978 119.684 133.458 119.684 133.458L101.19 143.013L103.16 133.458L118.631 128.586Z" fill="#F8AE9D"/>
<path fill-rule="evenodd" clip-rule="evenodd" d="M104.466 108.633C98.8567 116.551 94.0671 128.61 92.2287 133.312C90.3904 138.014 92.245 145.106 100.329 143.713C101.291 143.548 102.857 142.938 102.857 142.938C105.829 138.864 106.351 135.366 105.241 132.251L104.196 132.692C104.196 132.692 112.23 118.451 114.192 114.633C117.47 108.257 109.407 101.658 104.466 108.633Z" fill="#31446C"/>
<path d="M127.701 227.568C128.374 227.568 129.026 227.339 129.551 226.918C130.076 226.498 130.442 225.911 130.588 225.254L146.533 153.733C146.945 151.884 145.538 150.129 143.643 150.129C142.97 150.129 142.317 150.358 141.792 150.779C141.266 151.2 140.9 151.788 140.754 152.445L124.814 223.967C124.402 225.815 125.808 227.568 127.701 227.568ZM251.409 227.568C250.737 227.569 250.084 227.339 249.559 226.919C249.034 226.498 248.668 225.911 248.522 225.254L232.577 153.73C232.165 151.883 233.57 150.129 235.464 150.129C236.136 150.129 236.789 150.358 237.314 150.779C237.839 151.2 238.204 151.787 238.351 152.443L254.296 223.967C254.708 225.815 253.302 227.568 251.409 227.568Z" fill="white" stroke="#E1E4E5" stroke-width="4" stroke-linecap="round" stroke-linejoin="round"/>
<path fill-rule="evenodd" clip-rule="evenodd" d="M251.833 150.261V147.571C251.833 146.027 251.045 144.776 250.076 144.769H127.935C126.961 144.769 126.178 146.027 126.178 147.571V150.261C126.178 151.812 126.966 153.064 127.935 153.064H131.816C132.202 153.064 132.584 153.139 132.94 153.287C133.297 153.435 133.621 153.651 133.894 153.924C134.166 154.197 134.383 154.521 134.53 154.877C134.678 155.234 134.754 155.616 134.754 156.002C134.754 156.493 135.154 156.889 135.647 156.889H245.588C246.077 156.889 246.477 156.493 246.477 156.002C246.477 155.616 246.553 155.234 246.7 154.877C246.848 154.521 247.064 154.197 247.337 153.924C247.61 153.651 247.934 153.435 248.291 153.287C248.647 153.139 249.029 153.064 249.415 153.064H250.076C251.05 153.064 251.833 151.812 251.833 150.261Z" fill="white"/>
<path d="M250.076 144.768L250.082 143.935H250.076V144.768ZM251 147.571V150.261H252.667V147.571H251ZM250.069 145.602C250.168 145.603 250.382 145.67 250.612 146.037C250.835 146.392 251 146.932 251 147.571H252.667C252.667 146.666 252.437 145.809 252.024 145.15C251.617 144.503 250.952 143.942 250.082 143.935L250.069 145.602ZM127.935 145.602H250.076V143.935H127.935V145.602ZM127.011 147.571C127.011 146.93 127.175 146.388 127.398 146.033C127.627 145.666 127.838 145.602 127.935 145.602V143.935C127.058 143.935 126.391 144.5 125.985 145.149C125.572 145.808 125.345 146.668 125.345 147.571H127.011ZM127.011 150.261V147.571H125.345V150.261H127.011ZM127.935 152.23C127.84 152.23 127.628 152.166 127.399 151.8C127.176 151.446 127.011 150.905 127.011 150.261H125.345C125.345 151.168 125.573 152.028 125.987 152.687C126.395 153.335 127.062 153.897 127.935 153.897V152.23ZM131.816 152.23H127.935V153.897H131.816V152.23ZM135.647 156.055C135.608 156.055 135.588 156.027 135.588 156.001H133.921C133.921 156.959 134.7 157.722 135.647 157.722V156.055ZM245.588 156.055H135.647V157.722H245.588V156.055ZM245.643 156.001C245.643 156.03 245.62 156.055 245.588 156.055V157.722C246.045 157.722 246.483 157.541 246.805 157.218C247.128 156.895 247.31 156.458 247.31 156.001H245.643ZM250.076 152.23H249.415V153.897H250.076V152.23ZM251 150.261C251 150.905 250.835 151.448 250.614 151.801C250.385 152.165 250.175 152.23 250.076 152.23V153.897C250.951 153.897 251.619 153.336 252.026 152.686C252.44 152.027 252.667 151.167 252.667 150.261H251ZM247.31 156.001C247.31 155.725 247.364 155.451 247.47 155.196C247.576 154.94 247.731 154.708 247.927 154.513C248.122 154.318 248.354 154.163 248.609 154.057C248.865 153.951 249.139 153.897 249.415 153.897V152.23C248.415 152.23 247.455 152.627 246.748 153.335C246.041 154.042 245.643 155.001 245.643 156.001H247.31ZM131.816 153.897C132.092 153.897 132.366 153.951 132.621 154.057C132.877 154.163 133.109 154.318 133.304 154.513C133.5 154.708 133.655 154.94 133.761 155.196C133.866 155.451 133.921 155.725 133.921 156.001H135.588C135.587 155.001 135.19 154.042 134.483 153.335C133.775 152.627 132.816 152.23 131.816 152.23V153.897Z" fill="#E1E4E5"/>
<path d="M69.8462 109.692C68.5504 109.692 67.5 108.642 67.5 107.346C67.5 106.05 68.5504 105 69.8462 105C71.142 105 72.1925 106.05 72.1925 107.346C72.1925 108.642 71.142 109.692 69.8462 109.692Z" fill="#A855F7"/>
<path d="M70.8164 156.597C71.1144 157.709 70.4544 158.852 69.3424 159.15C68.2303 159.448 67.0873 158.788 66.7893 157.676C66.4913 156.564 67.1513 155.421 68.2633 155.123C69.3754 154.825 70.5184 155.485 70.8164 156.597Z" fill="#E1E4E5"/>
<path d="M101.106 65.5458C99.5748 65.5458 98.3333 64.3044 98.3333 62.7729C98.3333 61.2415 99.5748 60 101.106 60C102.638 60 103.879 61.2415 103.879 62.7729C103.879 64.3044 102.638 65.5458 101.106 65.5458Z" fill="#E1E4E5"/>
<path d="M318.64 96.6711C318.64 97.9883 317.572 99.0561 316.255 99.0561C314.937 99.0561 313.87 97.9883 313.87 96.6711C313.87 95.3539 314.937 94.2861 316.255 94.2861C317.572 94.2861 318.64 95.3539 318.64 96.6711Z" fill="#E1E4E5"/>
<path d="M87.6787 49.5835H87.7362C88.0771 54.3468 91.6667 54.4202 91.6667 54.4202C91.6667 54.4202 87.7083 54.4964 87.7083 60.0002C87.7083 54.4964 83.75 54.4202 83.75 54.4202C83.75 54.4202 87.3383 54.3468 87.6787 49.5835Z" fill="#E1E4E5"/>
<defs>
<filter id="filter0_f_7766_12755" x="255.596" y="156.429" width="42.9747" height="42.9745" filterUnits="userSpaceOnUse" color-interpolation-filters="sRGB">
<feFlood flood-opacity="0" result="BackgroundImageFix"/>
<feBlend mode="normal" in="SourceGraphic" in2="BackgroundImageFix" result="shape"/>
<feGaussianBlur stdDeviation="4.077" result="effect1_foregroundBlur_7766_12755"/>
</filter>
<linearGradient id="paint0_linear_7766_12755" x1="225.977" y1="230.404" x2="221.853" y2="-123.831" gradientUnits="userSpaceOnUse">
<stop stop-color="white"/>
<stop offset="1" stop-color="#EEEEEE"/>
</linearGradient>
<linearGradient id="paint1_linear_7766_12755" x1="225.183" y1="179.591" x2="224.014" y2="79.1694" gradientUnits="userSpaceOnUse">
<stop stop-color="white"/>
<stop offset="1" stop-color="#EEEEEE"/>
</linearGradient>
<linearGradient id="paint2_linear_7766_12755" x1="81.5479" y1="106.232" x2="80.8158" y2="43.3307" gradientUnits="userSpaceOnUse">
<stop stop-color="white"/>
<stop offset="1" stop-color="#EEEEEE"/>
</linearGradient>
<linearGradient id="paint3_linear_7766_12755" x1="120.569" y1="74.951" x2="119.746" y2="4.32474" gradientUnits="userSpaceOnUse">
<stop stop-color="white"/>
<stop offset="1" stop-color="#EEEEEE"/>
</linearGradient>
<linearGradient id="paint4_linear_7766_12755" x1="277.652" y1="206.201" x2="276.83" y2="135.575" gradientUnits="userSpaceOnUse">
<stop stop-color="white"/>
<stop offset="1" stop-color="#EEEEEE"/>
</linearGradient>
</defs>
</svg>
