<svg width="80" height="80" viewBox="0 0 80 80" fill="none" xmlns="http://www.w3.org/2000/svg">
  <path d="M70 0H10C4.375 0 0 4.53125 0 10V55C0 60.625 4.375 65 10 65H25V78.125C25 79.375 25.7812 80 26.875 80C27.1875 80 27.5 80 27.9688 79.6875L47.5 65H70C75.4688 65 80 60.625 80 55V10C80 4.53125 75.4688 0 70 0ZM72.5 55C72.5 56.4062 71.25 57.5 70 57.5H45L42.9688 59.0625L32.5 66.875V57.5H10C8.59375 57.5 7.5 56.4062 7.5 55V10C7.5 8.75 8.59375 7.5 10 7.5H70C71.25 7.5 72.5 8.75 72.5 10V55ZM51.875 20.4688C51.25 19.8438 50.3125 19.8438 49.6875 20.4688L36.0938 33.9062L30.1562 27.9688C29.5312 27.3438 28.5938 27.3438 27.9688 27.9688L24.375 31.5625C23.75 32.1875 23.75 33.125 24.375 33.75L35 44.5312C35.4688 45.1562 36.5625 45.1562 37.1875 44.5312L55.4688 26.25C56.0938 25.625 56.0938 24.6875 55.625 24.0625L51.875 20.4688Z" fill="#A855F7"/>
</svg>
