<svg width="253" height="210" viewBox="0 0 253 210" fill="none" xmlns="http://www.w3.org/2000/svg">
<path opacity="0.76" fill-rule="evenodd" clip-rule="evenodd" d="M224 67.5415C224 30.6073 194.059 0.666504 157.125 0.666504C120.191 0.666504 90.25 30.6073 90.25 67.5415C90.25 104.476 120.191 134.417 157.125 134.417C194.059 134.417 224 104.476 224 67.5415ZM115.25 67.5415C115.25 44.4144 133.998 25.6665 157.125 25.6665C180.252 25.6665 199 44.4144 199 67.5415C199 90.6686 180.252 109.417 157.125 109.417C133.998 109.417 115.25 90.6686 115.25 67.5415Z" fill="url(#paint0_linear_7766_12755)"/>
<path opacity="0.76" fill-rule="evenodd" clip-rule="evenodd" d="M177.333 118.375C177.333 107.904 168.845 99.4165 158.375 99.4165C147.905 99.4165 139.417 107.904 139.417 118.375C139.417 128.845 147.905 137.333 158.375 137.333C168.845 137.333 177.333 128.845 177.333 118.375ZM151.917 118.375C151.917 114.808 154.808 111.917 158.375 111.917C161.942 111.917 164.833 114.808 164.833 118.375C164.833 121.942 161.942 124.833 158.375 124.833C154.808 124.833 151.917 121.942 151.917 118.375Z" fill="url(#paint1_linear_7766_12755)"/>
<path d="M15.0417 71.9165C21.6 71.9165 26.9167 66.5999 26.9167 60.0415C26.9167 53.4831 21.6 48.1665 15.0417 48.1665C8.48328 48.1665 3.16666 53.4831 3.16666 60.0415C3.16666 66.5999 8.48328 71.9165 15.0417 71.9165Z" fill="url(#paint2_linear_7766_12755)"/>
<path d="M54 39.0002C61.3638 39.0002 67.3333 33.0306 67.3333 25.6668C67.3333 18.303 61.3638 12.3335 54 12.3335C46.6362 12.3335 40.6667 18.303 40.6667 25.6668C40.6667 33.0306 46.6362 39.0002 54 39.0002Z" fill="url(#paint3_linear_7766_12755)"/>
<g filter="url(#filter0_f_7766_12755)">
<path d="M211.083 170.25C218.447 170.25 224.417 164.281 224.417 156.917C224.417 149.553 218.447 143.583 211.083 143.583C203.72 143.583 197.75 149.553 197.75 156.917C197.75 164.281 203.72 170.25 211.083 170.25Z" fill="url(#paint4_linear_7766_12755)"/>
</g>
<path d="M228.525 109.929H82.8087C78.4933 109.929 75.25 107.014 75.25 103.71V26.9823C75.25 23.6777 78.4933 20.7627 82.8087 20.7627H228.525C232.84 20.7627 236.083 23.6777 236.083 26.9823V103.71C236.083 107.014 232.84 109.929 228.525 109.929V109.929Z" fill="white" stroke="#E1E4E5" stroke-width="4"/>
<path fill-rule="evenodd" clip-rule="evenodd" d="M88.4125 46.5892V75.1701C88.4125 76.7217 89.6546 77.978 91.1883 77.978H108.013L115.357 67.5097C115.707 67.0105 116.583 67.0105 116.933 67.5097L119.504 71.1755L119.524 71.2038L119.541 71.1788L125.055 63.1722C125.437 62.618 126.393 62.618 126.774 63.1722L134.077 73.7772V46.5892C134.077 45.038 132.831 43.7817 131.3 43.7817H91.1883C89.6546 43.7817 88.4125 45.038 88.4125 46.5892V46.5892Z" fill="#A855F7"/>
<path d="M101.29 63.2477C98.6117 63.2477 96.44 61.076 96.44 58.3973C96.44 55.7185 98.6117 53.5469 101.29 53.5469C103.969 53.5469 106.14 55.7185 106.14 58.3973C106.14 61.076 103.969 63.2477 101.29 63.2477Z" fill="white"/>
<path d="M236.083 30.4436H75.25V28.2253C75.25 24.0515 78.635 20.6665 82.8087 20.6665H228.525C232.698 20.6665 236.083 24.0515 236.083 28.2253V30.4436V30.4436Z" fill="white" stroke="#E1E4E5" stroke-width="4"/>
<path d="M82.8242 27.7256C83.3022 27.7256 83.7607 27.5357 84.0987 27.1977C84.4368 26.8596 84.6267 26.4012 84.6267 25.9231C84.6267 25.4451 84.4368 24.9866 84.0987 24.6485C83.7607 24.3105 83.3022 24.1206 82.8242 24.1206C82.3461 24.1206 81.8876 24.3105 81.5496 24.6485C81.2116 24.9866 81.0217 25.4451 81.0217 25.9231C81.0217 26.4012 81.2116 26.8596 81.5496 27.1977C81.8876 27.5357 82.3461 27.7256 82.8242 27.7256V27.7256ZM90.3338 27.7256C90.8117 27.7256 91.2701 27.5357 91.608 27.1978C91.946 26.8598 92.1358 26.4015 92.1358 25.9235C92.1358 25.4456 91.946 24.9872 91.608 24.6493C91.2701 24.3113 90.8117 24.1214 90.3338 24.1214C89.8558 24.1214 89.3974 24.3113 89.0595 24.6493C88.7215 24.9872 88.5317 25.4456 88.5317 25.9235C88.5317 26.4015 88.7215 26.8598 89.0595 27.1978C89.3974 27.5357 89.8558 27.7256 90.3338 27.7256ZM97.5429 27.7256C98.021 27.7256 98.4795 27.5357 98.8175 27.1977C99.1555 26.8596 99.3454 26.4012 99.3454 25.9231C99.3454 25.4451 99.1555 24.9866 98.8175 24.6485C98.4795 24.3105 98.021 24.1206 97.5429 24.1206C97.0649 24.1206 96.6064 24.3105 96.2684 24.6485C95.9303 24.9866 95.7404 25.4451 95.7404 25.9231C95.7404 26.4012 95.9303 26.8596 96.2684 27.1977C96.6064 27.5357 97.0649 27.7256 97.5429 27.7256V27.7256Z" fill="#E1E4E5"/>
<path d="M220.128 43.7817H144.24C142.608 43.7817 141.285 45.1046 141.285 46.7363C141.285 48.3681 142.608 49.6909 144.24 49.6909H220.128C221.76 49.6909 223.083 48.3681 223.083 46.7363C223.083 45.1046 221.76 43.7817 220.128 43.7817Z" fill="#E1E4E5"/>
<path d="M220.128 57.4668H144.24C142.608 57.4668 141.285 58.7896 141.285 60.4214C141.285 62.0532 142.608 63.376 144.24 63.376H220.128C221.76 63.376 223.083 62.0532 223.083 60.4214C223.083 58.7896 221.76 57.4668 220.128 57.4668Z" fill="#E1E4E5"/>
<path d="M215.667 71.0835H144C142.389 71.0835 141.083 72.3893 141.083 74.0002C141.083 75.611 142.389 76.9168 144 76.9168H215.667C217.278 76.9168 218.583 75.611 218.583 74.0002C218.583 72.3893 217.278 71.0835 215.667 71.0835Z" fill="#E1E4E5"/>
<path d="M220.128 84.8359H144.24C142.608 84.8359 141.285 86.1587 141.285 87.7905C141.285 89.4223 142.608 90.7451 144.24 90.7451H220.128C221.76 90.7451 223.083 89.4223 223.083 87.7905C223.083 86.1587 221.76 84.8359 220.128 84.8359Z" fill="#E1E4E5"/>
<path fill-rule="evenodd" clip-rule="evenodd" d="M53.1963 151.952C53.4412 151.918 53.6906 151.932 53.93 151.995C54.1693 152.058 54.3938 152.167 54.5905 152.317C54.7871 152.468 54.9518 152.655 55.0752 152.87C55.1986 153.084 55.2781 153.321 55.3092 153.567L61.865 205.305C61.9264 205.788 61.7937 206.275 61.4961 206.659C61.1984 207.044 60.7601 207.295 60.2777 207.356C59.7953 207.417 59.3082 207.285 58.9237 206.987C58.5391 206.689 58.2885 206.251 58.2271 205.769L51.6046 154.039C51.5421 153.551 51.6742 153.059 51.9721 152.669C52.27 152.278 52.7099 152.021 53.1963 151.952V151.952Z" fill="white" stroke="#E1E4E5" stroke-width="4" stroke-linecap="round" stroke-linejoin="round"/>
<path fill-rule="evenodd" clip-rule="evenodd" d="M53.9458 151.952C53.7008 151.918 53.4514 151.932 53.2121 151.995C52.9727 152.058 52.7482 152.167 52.5516 152.318C52.355 152.468 52.1901 152.655 52.0667 152.87C51.9432 153.084 51.8636 153.321 51.8325 153.567L45.2767 205.305C45.2152 205.788 45.348 206.275 45.6457 206.66C45.9434 207.044 46.3817 207.295 46.8642 207.356C47.3466 207.418 47.8338 207.285 48.2184 206.987C48.603 206.689 48.8536 206.251 48.915 205.769L55.5375 154.039C55.5998 153.551 55.4678 153.059 55.1698 152.669C54.8719 152.278 54.4322 152.021 53.9458 151.952V151.952ZM73.7375 151.952C73.9825 151.918 74.2319 151.932 74.4713 151.995C74.7106 152.058 74.9351 152.167 75.1317 152.318C75.3284 152.468 75.4932 152.655 75.6166 152.87C75.7401 153.084 75.8197 153.321 75.8508 153.567L82.4067 205.305C82.4681 205.788 82.3354 206.275 82.0377 206.66C81.7399 207.044 81.3016 207.295 80.8192 207.356C80.3367 207.418 79.8496 207.285 79.465 206.987C79.0804 206.689 78.8298 206.251 78.7683 205.769L72.1458 154.039C72.0835 153.551 72.2156 153.059 72.5135 152.669C72.8114 152.278 73.2512 152.021 73.7375 151.952ZM32.4263 151.952C32.1812 151.918 31.9318 151.932 31.6924 151.995C31.4531 152.058 31.2285 152.167 31.0319 152.317C30.8353 152.468 30.6704 152.655 30.547 152.87C30.4236 153.084 30.344 153.321 30.3129 153.567L23.7571 205.305C23.6956 205.788 23.8284 206.275 24.126 206.659C24.4237 207.044 24.862 207.295 25.3444 207.356C25.5832 207.386 25.8258 207.369 26.0581 207.306C26.2904 207.243 26.508 207.134 26.6984 206.987C27.083 206.689 27.3336 206.251 27.395 205.769L34.0179 154.039C34.0803 153.551 33.9482 153.059 33.6503 152.669C33.3523 152.278 32.9126 152.021 32.4263 151.952Z" fill="white" stroke="#E1E4E5" stroke-width="4" stroke-linecap="round" stroke-linejoin="round"/>
<path fill-rule="evenodd" clip-rule="evenodd" d="M78.3187 160.445C81.5329 160.445 84.1387 157.839 84.1387 154.625C84.1387 151.411 81.5329 148.805 78.3187 148.805H65.6342C56.0867 148.805 48.1062 141.541 47.2112 132.035L45.11 109.721C44.4238 102.433 38.3058 96.8643 30.9863 96.8643C22.7225 96.8643 16.2079 103.899 16.8417 112.138L19.0779 141.21C19.9129 152.064 28.9637 160.445 39.85 160.445H78.3187Z" fill="white" stroke="#E1E4E5" stroke-width="4" stroke-linecap="round" stroke-linejoin="round"/>
<path fill-rule="evenodd" clip-rule="evenodd" d="M84.1387 154.485C84.1385 154.51 84.1288 154.533 84.1118 154.55C84.0947 154.567 84.0716 154.576 84.0475 154.576H45.7146C34.8304 154.576 25.78 146.197 24.9429 135.345L22.7112 106.413C22.6602 105.754 22.6549 105.092 22.6954 104.432C22.9429 100.415 26.2579 97.1201 30.2754 96.888C30.5504 96.8722 30.8279 96.8643 31.1071 96.8643C38.4079 96.8643 44.51 102.417 45.1962 109.686L47.2971 131.931C48.1925 141.413 56.1533 148.657 65.6771 148.657H78.3337C81.5396 148.657 84.1387 151.256 84.1387 154.462V154.485Z" fill="white"/>
<path d="M24.9429 135.345L24.1121 135.409L24.9429 135.345ZM22.7112 106.413L23.5421 106.349L22.7112 106.413ZM45.1962 109.685L46.0263 109.607L45.1962 109.685ZM47.2971 131.931L48.1267 131.853L47.2971 131.931ZM30.2754 96.8878L30.3233 97.7199L30.2754 96.8878ZM84.1388 154.485L84.9721 154.489L84.1388 154.485ZM45.7146 153.743H84.0475V155.41H45.7146V153.743V153.743ZM25.7737 135.281C26.5775 145.699 35.2654 153.743 45.7146 153.743V155.41C34.395 155.41 24.9829 146.695 24.1121 135.409L25.7737 135.281ZM23.5421 106.349L25.7737 135.281L24.1121 135.409L21.8804 106.477L23.5421 106.349ZM23.5271 104.483C23.489 105.105 23.494 105.728 23.5421 106.349L21.8804 106.477C21.8264 105.779 21.8208 105.079 21.8637 104.38L23.5271 104.483ZM31.1071 97.6974C30.8442 97.6974 30.5825 97.7049 30.3233 97.7199L30.2275 96.0558C30.5183 96.0391 30.8121 96.0308 31.1071 96.0308V97.6974V97.6974ZM44.3667 109.764C43.7208 102.924 37.9779 97.6974 31.1071 97.6974V96.0308C38.8375 96.0308 45.2992 101.911 46.0263 109.607L44.3667 109.764V109.764ZM46.4675 132.01L44.3667 109.764L46.0263 109.607L48.1267 131.853L46.4675 132.01ZM65.6771 149.49C55.7233 149.49 47.4033 141.919 46.4675 132.01L48.1267 131.853C48.9817 140.906 56.5833 147.824 65.6771 147.824V149.49ZM78.3338 149.49H65.6771V147.824H78.3338V149.49ZM83.3054 154.462C83.3054 151.716 81.0796 149.49 78.3338 149.49V147.824C82 147.824 84.9721 150.796 84.9721 154.462H83.3054ZM83.3054 154.482V154.462H84.9721V154.489L83.3054 154.482ZM21.8637 104.38C22.1371 99.9416 25.7896 96.3124 30.2275 96.0558L30.3233 97.7199C26.7262 97.9274 23.7487 100.888 23.5271 104.483L21.8637 104.38V104.38ZM84.0475 153.743C83.6388 153.743 83.3071 154.073 83.3054 154.482L84.9721 154.489C84.9711 154.733 84.8732 154.967 84.7 155.14C84.5267 155.313 84.2921 155.41 84.0475 155.41V153.743Z" fill="#E1E4E5"/>
<path d="M215.769 127.921C216.163 127.921 216.48 127.604 216.487 127.215C216.624 119.715 210.613 116.467 210.356 116.329C210.186 116.241 209.988 116.223 209.805 116.28C209.623 116.337 209.47 116.465 209.381 116.634C209.293 116.804 209.275 117.001 209.331 117.183C209.386 117.366 209.512 117.519 209.68 117.609C209.692 117.615 211.086 118.363 212.431 119.924C214.214 121.987 215.093 124.434 215.039 127.191C215.036 127.382 215.109 127.566 215.241 127.704C215.373 127.841 215.554 127.922 215.745 127.927C215.757 127.921 215.763 127.921 215.769 127.921V127.921ZM218.089 109.302C218.089 109.302 226.457 93.5182 196.438 82.4536C194.889 81.8853 193.322 83.249 193.693 84.8578C195.589 93.0757 201.803 112.287 218.089 109.302V109.302Z" fill="#A855F7"/>
<path d="M226.325 126.491C226.361 126.491 226.397 126.491 226.427 126.485C226.521 126.472 226.611 126.439 226.692 126.391C226.774 126.342 226.845 126.278 226.902 126.202C226.958 126.126 226.999 126.039 227.023 125.947C227.046 125.855 227.051 125.76 227.037 125.666C224.955 111.306 214.255 104.631 213.047 103.913C212.706 103.71 212.258 103.817 212.055 104.158C211.956 104.322 211.927 104.517 211.973 104.702C212.019 104.888 212.136 105.047 212.3 105.145L212.317 105.151C212.826 105.45 215.493 107.101 218.364 110.319C222.324 114.769 224.764 119.996 225.613 125.863C225.667 126.234 225.972 126.491 226.325 126.491V126.491Z" fill="#A855F7"/>
<path d="M221.918 126.491H221.953C222.144 126.481 222.323 126.397 222.452 126.256C222.581 126.115 222.649 125.929 222.641 125.738C222.354 119.595 226.254 113.991 226.29 113.931C226.399 113.774 226.442 113.581 226.409 113.393C226.377 113.205 226.272 113.037 226.116 112.926C225.96 112.817 225.766 112.774 225.578 112.807C225.39 112.839 225.222 112.944 225.111 113.1C224.938 113.345 220.889 119.171 221.2 125.803C221.208 125.988 221.287 126.163 221.42 126.291C221.554 126.42 221.732 126.491 221.918 126.491V126.491ZM219.848 127.55H219.866C219.961 127.547 220.054 127.526 220.141 127.488C220.227 127.449 220.305 127.394 220.37 127.325C220.435 127.256 220.486 127.175 220.52 127.086C220.553 126.997 220.569 126.903 220.565 126.808L219.95 103.441C219.947 103.346 219.926 103.252 219.888 103.166C219.849 103.079 219.794 103.001 219.725 102.936C219.656 102.871 219.575 102.82 219.486 102.787C219.397 102.753 219.303 102.737 219.208 102.741C219.113 102.743 219.02 102.764 218.933 102.803C218.847 102.841 218.769 102.897 218.703 102.966C218.638 103.035 218.588 103.116 218.554 103.204C218.521 103.293 218.505 103.388 218.508 103.482L219.124 126.844C219.13 127.033 219.208 127.212 219.343 127.343C219.478 127.475 219.659 127.549 219.848 127.55Z" fill="#A855F7"/>
<path d="M224.86 114.332C224.86 114.332 241.888 119.745 247.408 88.2252C247.695 86.5985 246.068 85.3069 244.549 85.9585C236.804 89.2898 219.01 98.8414 224.86 114.332ZM213.831 120.397C213.831 120.397 198.526 129.614 185.84 100.235C185.188 98.7219 186.468 97.0831 188.095 97.3644C196.403 98.8119 215.924 103.973 213.831 120.397V120.397Z" fill="#A855F7"/>
<path d="M216.636 111.521C217.82 113.973 221.397 113.704 222.21 111.102C225.84 99.511 231.923 74.9414 219.327 72.1181C205.2 68.9543 209.931 97.6568 216.636 111.521V111.521Z" fill="#A855F7"/>
<path d="M219.543 113.094H219.561C219.665 113.09 219.762 113.044 219.833 112.968C219.904 112.892 219.941 112.791 219.938 112.687L218.61 79.8336C218.608 79.7821 218.596 79.7314 218.575 79.6845C218.554 79.6376 218.523 79.5954 218.485 79.5604C218.447 79.5254 218.403 79.4982 218.355 79.4804C218.306 79.4627 218.255 79.4547 218.203 79.4569C218.1 79.4612 218.002 79.5064 217.931 79.5826C217.86 79.6588 217.823 79.7598 217.826 79.8636L219.148 112.717C219.154 112.927 219.327 113.094 219.543 113.094ZM213.407 120.444C213.465 120.445 213.523 120.432 213.575 120.407C213.628 120.382 213.675 120.346 213.712 120.301C213.849 120.134 213.825 119.882 213.658 119.751L195.464 104.858C195.296 104.721 195.045 104.744 194.913 104.912C194.881 104.952 194.856 104.997 194.841 105.046C194.826 105.096 194.821 105.147 194.826 105.198C194.831 105.249 194.846 105.299 194.87 105.344C194.894 105.39 194.927 105.43 194.967 105.462L213.161 120.355C213.23 120.412 213.317 120.444 213.407 120.444V120.444Z" fill="#31446C"/>
<path d="M205.647 124.948C203.199 124.948 201.377 127.209 201.897 129.601L202.231 131.114L202.931 134.326L203.26 135.845L203.375 136.37C205.03 143.938 211.731 149.332 219.477 149.332C227.224 149.332 233.926 143.938 235.58 136.37L235.695 135.845L236.024 134.326L236.724 131.114L237.052 129.601C237.575 127.21 235.754 124.948 233.306 124.948H205.647V124.948ZM240.018 183.983H198.11C198.046 183.984 197.983 183.971 197.924 183.947C197.865 183.923 197.812 183.887 197.767 183.842C197.722 183.797 197.686 183.744 197.662 183.685C197.637 183.626 197.625 183.563 197.625 183.499V181.071C197.625 180.802 197.841 180.586 198.11 180.586H240.024C240.293 180.586 240.509 180.802 240.509 181.071V183.499C240.507 183.628 240.455 183.751 240.363 183.842C240.271 183.932 240.147 183.983 240.018 183.983V183.983Z" fill="white" stroke="#E1E4E5" stroke-width="4" stroke-linecap="round" stroke-linejoin="round"/>
<path d="M209.316 150.131C211.315 150.131 212.741 152.069 212.147 153.977L195.895 206.369C195.768 206.774 195.49 207.115 195.12 207.322C194.749 207.529 194.313 207.586 193.902 207.481C193.49 207.376 193.135 207.118 192.908 206.759C192.682 206.4 192.601 205.967 192.684 205.551L202.823 155.072L203.11 153.645C203.309 152.654 203.845 151.763 204.627 151.122C205.409 150.481 206.389 150.131 207.4 150.131H209.316V150.131ZM245.631 205.551C245.716 205.968 245.637 206.402 245.41 206.763C245.184 207.123 244.827 207.383 244.415 207.488C244.002 207.593 243.565 207.536 243.194 207.328C242.822 207.119 242.545 206.776 242.42 206.369L225.671 152.392C225.323 151.27 226.162 150.131 227.337 150.131H233.272C233.982 150.131 234.595 150.631 234.738 151.328L245.631 205.551Z" fill="white" stroke="#E1E4E5" stroke-width="4" stroke-linecap="round" stroke-linejoin="round"/>
<path d="M199.783 149.533H238.711C239.359 149.533 239.881 150.235 239.881 151.105V157.53C239.881 158.4 239.359 159.103 238.711 159.103H199.783C199.135 159.103 198.613 158.4 198.613 157.53V151.105C198.613 150.235 199.135 149.533 199.783 149.533Z" fill="white" stroke="#E1E4E5" stroke-width="4" stroke-linecap="round" stroke-linejoin="round"/>
<path fill-rule="evenodd" clip-rule="evenodd" d="M88.1367 187.555C88.1367 187.555 84.895 194.103 87.5525 196.166C90.2142 198.23 97.245 202.098 97.245 202.098L78.6183 200.927L82.7588 186.646L88.1367 187.555V187.555Z" fill="#F8AE9D"/>
<path fill-rule="evenodd" clip-rule="evenodd" d="M80.4629 193.481C81.0492 193.761 80.0854 196.391 82.1479 196.206C84.2096 196.022 85.5042 193.303 87.0246 193.479C88.5454 193.656 89.5108 196.394 92.4058 198.301C95.3004 200.209 99.5925 202.484 99.305 204.403C99.0175 206.321 92.2633 206.834 88.8412 206.199C85.4196 205.565 83.8225 204.189 81.6025 204.299C79.3825 204.409 77.9875 204.137 77.2912 202.711C76.5958 201.286 79.7867 193.158 80.4629 193.481V193.481ZM60.0771 129.844C65.7162 130.095 97.1021 137.037 102.804 138.216C108.507 139.396 113.327 145.778 108.979 153.167C104.095 161.462 91.4946 185.021 88.435 190.331C86.9208 192.96 79.2812 191.486 81.0758 187.074C84.4208 178.85 85.9746 158.189 94.5029 150.656C94.5029 150.656 65.8212 155.648 53.4321 149.93C44.4279 145.774 46.465 129.235 60.0771 129.844V129.844Z" fill="#31446C"/>
<path fill-rule="evenodd" clip-rule="evenodd" d="M99.4158 94.6434C99.4158 94.6434 99.3521 91.2909 100.957 88.893C102.562 86.495 102.626 83.948 103.841 84.0313C105.055 84.1146 103.852 90.035 103.852 90.035C103.852 90.035 105.394 89.4463 106.501 88.7013C107.608 87.9567 110.965 84.285 111.75 84.9355C113.08 86.0442 110.938 92.2975 109.771 93.548C108.6 94.7984 102.822 98.293 102.822 98.293L85.805 115.436L83.2608 106.335L99.4158 94.6434Z" fill="#F8AE9D"/>
<path fill-rule="evenodd" clip-rule="evenodd" d="M65.3787 93.1296C68.0021 99.2137 72.805 110.391 74.7854 113.725C77.2667 117.901 81.1796 119.741 85.7612 116.643C86.7196 115.995 89.4725 113.727 89.4725 113.727C89.0654 109.758 87.5825 106.441 85.0263 103.774L83.2904 105.21C83.2904 105.21 78.3675 92.59 74.4075 85.2796C70.9775 78.955 61.3858 83.8804 65.3787 93.1296V93.1296ZM54.0417 69.5129V74.8966L50.0883 71.7133C50.0883 71.7133 48.8729 66.5554 47.8846 62.7246C47.265 60.3221 45.755 52.1916 51.8337 52.5725C56.8133 43.7946 71.3158 49.2275 71.4312 59.9516C71.57 72.85 71.4567 77.8721 71.4567 77.8721C63.2558 78.3425 58.64 77.1571 54.0417 69.5129Z" fill="#31446C"/>
<path fill-rule="evenodd" clip-rule="evenodd" d="M50.0029 79.7633C50.0029 79.7633 53.6808 78.8999 53.8083 72.8737C53.9358 66.8479 53.8463 64.7908 53.8463 64.7908L61.9475 64.6445C61.9475 64.6445 62.0354 71.3608 62.0367 73.79C62.0404 79.6962 66.3838 80.1804 66.3838 80.1804C66.3838 80.1804 65.6413 85.0537 58.3008 85.4662C52.5696 85.7891 50.0029 79.7633 50.0029 79.7633V79.7633Z" fill="#F8AE9D"/>
<path fill-rule="evenodd" clip-rule="evenodd" d="M51.9579 61.7815C48.3442 61.6415 48.9333 66.9319 52.6875 66.9248C52.6875 66.9248 54.8679 74.4398 62.4379 74.4398C68.5858 74.4398 68.9858 65.6811 69.0417 63.9336C69.1017 62.0706 69.1092 55.9498 69.1092 55.9498L51.8171 55.9419L51.9579 61.7815Z" fill="#F8AE9D"/>
<path fill-rule="evenodd" clip-rule="evenodd" d="M51.6783 61.7469C53.1758 61.9935 52.9942 62.9852 53.4012 62.8985C55.4692 62.4589 63.8396 63.0389 64.9175 58.436C66.2583 61.3114 66.5863 62.0185 69.5392 62.7906V54.3639L50.8621 52.5723C50.8621 52.5723 51.1517 61.6594 51.6783 61.7469Z" fill="#31446C"/>
<path fill-rule="evenodd" clip-rule="evenodd" d="M50.8246 79.147C55.44 81.9736 60.7758 83.0099 65.7425 79.9403C73.8483 95.9232 75.8683 114.993 73.9188 136.069C62.0992 140.749 52.165 139.829 43.7079 134.48L50.8246 79.147V79.147Z" fill="#A855F7"/>
<path fill-rule="evenodd" clip-rule="evenodd" d="M108.341 187.818C108.341 187.818 108.243 195.525 114.594 198.407C120.94 201.288 125.462 201.114 124.887 203.342C124.311 205.569 107.792 205.479 106.249 203.737C104.934 202.255 102.075 188.456 101.288 189.511L108.341 187.818V187.818Z" fill="#F8AE9D"/>
<path fill-rule="evenodd" clip-rule="evenodd" d="M103.729 198.702C104.702 198.002 105.52 202.041 108.164 200.917C110.807 199.795 108.723 196.083 110.387 195.398C112.05 194.713 115.263 198.394 119.53 199.289C123.796 200.183 127.26 200.966 128.245 202.626C129.093 204.054 128.245 204.51 128.245 204.51C128.245 204.51 124.137 206.561 121.585 207.013C117.877 207.668 107.161 208.106 105.987 206.91C105.266 206.176 103.242 199.053 103.729 198.702ZM42.4087 127.461C42.4087 127.461 34.2104 144.775 45.7317 150.72C56.8733 156.47 90.2287 149.669 90.2287 149.669C90.2287 149.669 89.6329 154.468 90.2287 158.748C91.7854 169.926 99.1887 188.549 100.755 190.889C102.921 194.125 109.52 191.685 109.644 188.99C109.768 186.296 104.67 151.883 103.895 145.321C103.123 138.758 100.688 137.804 93.5754 136.011C91.9412 135.598 72.6183 130.796 70.8479 130.936C55.6383 132.139 42.4087 127.461 42.4087 127.461V127.461Z" fill="#31446C"/>
<path fill-rule="evenodd" clip-rule="evenodd" d="M51.0262 79.1601C58.67 104.2 63.2542 139.699 39.3817 133.523C52.0629 110.175 34.8233 99.6659 38.7308 87.5988C40.0667 83.473 50.9267 78.8363 51.0262 79.1601V79.1601ZM65.3379 79.7651C68.255 87.0813 69.6571 92.8217 70.965 103.56C72.0562 112.504 71.51 130.961 71.51 130.961L75.115 131.67C75.115 131.67 77.6917 103.155 76.8304 99.4838C75.3846 93.323 74.405 89.7234 72.4958 84.0913C71.4442 81.0001 65.3379 79.7651 65.3379 79.7651V79.7651Z" fill="#31446C"/>
<path fill-rule="evenodd" clip-rule="evenodd" d="M52.6312 107.586C52.6312 107.586 57.3379 102.874 58.9679 102.327C60.5979 101.78 69.5263 101.123 69.4658 102.359C69.3975 103.682 63.6521 103.607 63.1208 104.258C62.5896 104.909 61.8508 109.978 59.8425 110.478C57.8383 110.978 53.6837 112.458 53.6837 112.458L35.19 122.013L37.1604 112.458L52.6312 107.586V107.586Z" fill="#F8AE9D"/>
<path fill-rule="evenodd" clip-rule="evenodd" d="M38.4662 87.6334C32.8567 95.5505 28.0671 107.61 26.2287 112.312C24.3904 117.014 26.245 124.106 34.3287 122.713C35.2912 122.548 36.8571 121.938 36.8571 121.938C39.8292 117.864 40.3508 114.366 39.2412 111.251L38.1958 111.692C38.1958 111.692 46.2304 97.4505 48.1925 93.6326C51.4696 87.2568 43.4075 80.6576 38.4662 87.6334V87.6334Z" fill="#31446C"/>
<path d="M61.7013 206.568C62.3739 206.568 63.0264 206.339 63.5512 205.918C64.0761 205.498 64.4419 204.911 64.5883 204.254L80.5329 132.733C80.945 130.884 79.5379 129.129 77.6433 129.129C76.9701 129.129 76.3169 129.358 75.7916 129.779C75.2663 130.2 74.9002 130.788 74.7537 131.445L58.8138 202.967C58.4021 204.815 59.8079 206.568 61.7013 206.568ZM185.409 206.568C184.736 206.569 184.084 206.339 183.559 205.919C183.034 205.498 182.668 204.911 182.522 204.254L166.577 132.73C166.165 130.883 167.57 129.129 169.464 129.129C170.136 129.129 170.789 129.358 171.314 129.779C171.839 130.2 172.204 130.787 172.351 131.443L188.296 202.967C188.708 204.815 187.302 206.568 185.409 206.568Z" fill="white" stroke="#E1E4E5" stroke-width="4" stroke-linecap="round" stroke-linejoin="round"/>
<path fill-rule="evenodd" clip-rule="evenodd" d="M185.833 129.261V126.571C185.833 125.027 185.045 123.776 184.076 123.769H61.9354C60.9613 123.769 60.1779 125.027 60.1779 126.571V129.261C60.1779 130.812 60.9663 132.064 61.9354 132.064H65.8158C66.2017 132.064 66.5838 132.139 66.9403 132.287C67.2967 132.435 67.6207 132.651 67.8935 132.924C68.1664 133.197 68.3828 133.521 68.5305 133.877C68.6782 134.234 68.7542 134.616 68.7542 135.002C68.7542 135.493 69.1537 135.889 69.6475 135.889H179.588C180.077 135.889 180.477 135.493 180.477 135.002C180.477 134.616 180.553 134.234 180.7 133.877C180.848 133.521 181.064 133.197 181.337 132.924C181.61 132.651 181.934 132.435 182.291 132.287C182.647 132.139 183.029 132.064 183.415 132.064H184.076C185.05 132.064 185.833 130.812 185.833 129.261Z" fill="white"/>
<path d="M184.076 123.768L184.082 122.935H184.076V123.768ZM185 126.571V129.261H186.667V126.571H185ZM184.069 124.602C184.168 124.603 184.382 124.67 184.612 125.037C184.835 125.392 185 125.932 185 126.571H186.667C186.667 125.666 186.437 124.809 186.024 124.15C185.617 123.503 184.952 122.942 184.082 122.935L184.069 124.602V124.602ZM61.9354 124.602H184.076V122.935H61.9354V124.602V124.602ZM61.0112 126.571C61.0112 125.93 61.1754 125.388 61.3979 125.033C61.6271 124.666 61.8383 124.602 61.9354 124.602V122.935C61.0579 122.935 60.3908 123.5 59.9846 124.149C59.5721 124.808 59.3446 125.668 59.3446 126.571H61.0112ZM61.0112 129.261V126.571H59.3446V129.261H61.0112ZM61.9354 131.23C61.84 131.23 61.6283 131.166 61.3987 130.8C61.1762 130.446 61.0112 129.905 61.0112 129.261H59.3446C59.3446 130.168 59.5733 131.028 59.9875 131.687C60.3946 132.335 61.0617 132.897 61.9354 132.897V131.23ZM65.8158 131.23H61.9354V132.897H65.8158V131.23ZM69.6475 135.055C69.6079 135.055 69.5875 135.027 69.5875 135.001H67.9208C67.9208 135.959 68.7 136.722 69.6475 136.722V135.055ZM179.588 135.055H69.6475V136.722H179.588V135.055ZM179.643 135.001C179.643 135.03 179.62 135.055 179.588 135.055V136.722C180.045 136.722 180.483 136.541 180.805 136.218C181.128 135.895 181.31 135.458 181.31 135.001H179.643ZM184.076 131.23H183.415V132.897H184.076V131.23ZM185 129.261C185 129.905 184.835 130.448 184.614 130.801C184.385 131.165 184.175 131.23 184.076 131.23V132.897C184.951 132.897 185.619 132.336 186.026 131.686C186.44 131.027 186.667 130.167 186.667 129.261H185V129.261ZM181.31 135.001C181.31 134.725 181.364 134.451 181.47 134.196C181.576 133.94 181.731 133.708 181.927 133.513C182.122 133.318 182.354 133.163 182.609 133.057C182.865 132.951 183.139 132.897 183.415 132.897V131.23C182.415 131.23 181.455 131.627 180.748 132.335C180.041 133.042 179.643 134.001 179.643 135.001H181.31ZM65.8158 132.897C66.0922 132.897 66.366 132.951 66.6213 133.057C66.8767 133.163 67.1088 133.318 67.3043 133.513C67.4997 133.708 67.6548 133.94 67.7606 134.196C67.8664 134.451 67.9208 134.725 67.9208 135.001H69.5875C69.5874 134.001 69.19 133.042 68.4827 132.335C67.7753 131.627 66.8161 131.23 65.8158 131.23V132.897Z" fill="#E1E4E5"/>
<path d="M3.84624 88.6925C2.55045 88.6925 1.49999 87.642 1.49999 86.3462C1.49999 85.0504 2.55045 84 3.84624 84C5.14204 84 6.1925 85.0504 6.1925 86.3462C6.1925 87.642 5.14204 88.6925 3.84624 88.6925Z" fill="#A855F7"/>
<path d="M4.8164 135.597C5.11438 136.709 4.45443 137.852 3.34238 138.15C2.23032 138.448 1.08727 137.788 0.789294 136.676C0.491319 135.564 1.15126 134.421 2.26332 134.123C3.37537 133.825 4.51843 134.485 4.8164 135.597Z" fill="#E1E4E5"/>
<path d="M35.1063 44.5458C33.5748 44.5458 32.3333 43.3044 32.3333 41.7729C32.3333 40.2415 33.5748 39 35.1063 39C36.6377 39 37.8792 40.2415 37.8792 41.7729C37.8792 43.3044 36.6377 44.5458 35.1063 44.5458Z" fill="#E1E4E5"/>
<path d="M252.64 75.6711C252.64 76.9883 251.572 78.0561 250.255 78.0561C248.937 78.0561 247.87 76.9883 247.87 75.6711C247.87 74.3539 248.937 73.2861 250.255 73.2861C251.572 73.2861 252.64 74.3539 252.64 75.6711Z" fill="#E1E4E5"/>
<path d="M21.6787 28.5835H21.7362C22.0771 33.3468 25.6667 33.4202 25.6667 33.4202C25.6667 33.4202 21.7083 33.4964 21.7083 39.0002C21.7083 33.4964 17.75 33.4202 17.75 33.4202C17.75 33.4202 21.3383 33.3468 21.6787 28.5835Z" fill="#E1E4E5"/>
<defs>
<filter id="filter0_f_7766_12755" x="189.596" y="135.429" width="42.9747" height="42.9745" filterUnits="userSpaceOnUse" color-interpolation-filters="sRGB">
<feFlood flood-opacity="0" result="BackgroundImageFix"/>
<feBlend mode="normal" in="SourceGraphic" in2="BackgroundImageFix" result="shape"/>
<feGaussianBlur stdDeviation="4.077" result="effect1_foregroundBlur_7766_12755"/>
</filter>
<linearGradient id="paint0_linear_7766_12755" x1="159.977" y1="209.404" x2="155.853" y2="-144.831" gradientUnits="userSpaceOnUse">
<stop stop-color="white"/>
<stop offset="1" stop-color="#EEEEEE"/>
</linearGradient>
<linearGradient id="paint1_linear_7766_12755" x1="159.183" y1="158.591" x2="158.014" y2="58.1694" gradientUnits="userSpaceOnUse">
<stop stop-color="white"/>
<stop offset="1" stop-color="#EEEEEE"/>
</linearGradient>
<linearGradient id="paint2_linear_7766_12755" x1="15.5479" y1="85.2319" x2="14.8158" y2="22.3307" gradientUnits="userSpaceOnUse">
<stop stop-color="white"/>
<stop offset="1" stop-color="#EEEEEE"/>
</linearGradient>
<linearGradient id="paint3_linear_7766_12755" x1="54.5688" y1="53.951" x2="53.7463" y2="-16.6753" gradientUnits="userSpaceOnUse">
<stop stop-color="white"/>
<stop offset="1" stop-color="#EEEEEE"/>
</linearGradient>
<linearGradient id="paint4_linear_7766_12755" x1="211.652" y1="185.201" x2="210.83" y2="114.575" gradientUnits="userSpaceOnUse">
<stop stop-color="white"/>
<stop offset="1" stop-color="#EEEEEE"/>
</linearGradient>
</defs>
</svg>
